<?xml version="1.0" encoding="UTF-8"?>
<!DOCTYPE svg PUBLIC "-//W3C//DTD SVG 1.1//EN" "http://www.w3.org/Graphics/SVG/1.1/DTD/svg11.dtd">
<!-- Creator: CorelDRAW -->
<svg xmlns="http://www.w3.org/2000/svg" xml:space="preserve" width="54.3192mm" height="54.3192mm" version="1.1" style="shape-rendering:geometricPrecision; text-rendering:geometricPrecision; image-rendering:optimizeQuality; fill-rule:evenodd; clip-rule:evenodd"
viewBox="0 0 1181.99 1181.99"
 xmlns:xlink="http://www.w3.org/1999/xlink"
 xmlns:xodm="http://www.corel.com/coreldraw/odm/2003">
 <defs>
  <style type="text/css">
   <![CDATA[
    .fil1 {fill:none}
    .fil0 {fill:#FEFEFE;fill-rule:nonzero}
   ]]>
  </style>
 </defs>
 <g id="Слой_x0020_1">
  <metadata id="CorelCorpID_0Corel-Layer"/>
  <g id="_1482283486832">
   <path class="fil0" d="M609.81 270.8c4.88,-11.2 -2.5,-21.95 -9.1,-25.11 -7.77,-3.76 -24.12,-2.17 -33.94,-2.17 -70.91,0 -117.18,-1.91 -182.49,37.76 -144.8,87.98 -162.06,280.49 -48.9,393.32 87.98,87.72 177.22,74.8 293.28,74.87 81.39,0.07 94.9,-84.36 46.86,-120.34 -39.15,-29.33 -142.22,0.4 -198.9,-22.21 -105.32,-41.98 -98.73,-179.53 -7.58,-220.19 36.71,-16.41 92.01,-10.88 136.03,-10.88l182.69 0c46,0.2 31.5,-30.12 25.77,-34.99 -7.45,-6.46 -20.5,-4.88 -31.63,-4.88 -49.1,0 -98.2,0 -147.3,0 -113.09,0 -173.99,-12.39 -237.19,57.14 -81.99,90.09 -27.08,247.08 104,261.58 27.68,3.03 129.18,-3.03 144.13,2.7 20.1,7.71 24.19,33.74 6.79,46.66 -12.46,9.29 -50.29,5.41 -67.88,5.41 -48.71,0 -90.16,3.36 -135.44,-11.47 -68.67,-22.41 -123.83,-79.74 -141.7,-152.77 -29,-118.76 51.54,-239.11 172.08,-258.94 23,-3.82 47.12,-2.9 71.18,-2.9 28.21,0 51.6,5.01 59.25,-12.59l0 -0z"/>
   <path class="fil0" d="M920.49 677.44c-0.4,-11.4 -1.38,-22.41 -3.23,-33.61 -3.43,-20.1 -9.1,-39.21 -16.74,-57.01 -7.64,-17.53 -16.34,-33.68 -26.36,-47.32 -32.03,-43.43 -71.11,-75.66 -126.87,-94.11 -46.92,-15.55 -82.97,-12.52 -133.33,-12.72 -51.6,-0.2 -94.84,-7.78 -121.13,26.43 -28.87,37.63 -9.62,81.66 21.02,98.92 19.44,10.94 42.18,8.11 66.17,8.11 24.58,0 49.16,0 73.68,0 149.08,0 172.74,187.76 51.8,232.32 -32.95,12.13 -100.9,7.64 -140.18,7.64 -48.57,0 -97.27,0.27 -145.85,0 -22.34,-0.13 -53.25,-5.67 -56.94,16.21 -1.85,11.01 5.01,20.23 13.25,22.67 7.84,2.31 165.95,0.99 182.16,0.99 40.53,0 106.77,3.89 142.69,-5.14 111.64,-28.01 159.36,-158.11 91.21,-249.91 -25.11,-33.81 -67.35,-61.62 -119.03,-64.33 -25.84,-1.32 -127.46,5.07 -141.89,-4.81 -18.26,-12.46 -14.3,-39.21 4.15,-47.12 10.35,-4.42 56.55,-2.17 71.51,-2.17 50.22,0 88.05,-2.9 132.53,13.51 64.92,23.79 120.94,80.21 136.95,156.26 25.31,119.55 -56.68,236.54 -178.47,254.2 -22.67,3.3 -48.51,2.11 -71.9,2.11 -21.22,0 -52.26,-5.67 -54.57,17.66 -2.64,27.35 29.72,22.21 51.67,22.21 23.73,0 48.64,0.92 71.77,-1.98 77.11,-9.62 141.1,-50.88 182.62,-110.66 33.88,-48.77 42.11,-91.34 43.3,-148.35l0 0z"/>
  </g>
  <rect class="fil1" width="1181.99" height="1181.99"/>
 </g>
</svg>
