<?xml version="1.0" encoding="UTF-8"?>
<!DOCTYPE svg PUBLIC "-//W3C//DTD SVG 1.1//EN" "http://www.w3.org/Graphics/SVG/1.1/DTD/svg11.dtd">
<!-- Creator: CorelDRAW -->
<svg xmlns="http://www.w3.org/2000/svg" xml:space="preserve" width="54.3192mm" height="54.3192mm" version="1.1" style="shape-rendering:geometricPrecision; text-rendering:geometricPrecision; image-rendering:optimizeQuality; fill-rule:evenodd; clip-rule:evenodd"
viewBox="0 0 943.37 943.37"
 xmlns:xlink="http://www.w3.org/1999/xlink"
 xmlns:xodm="http://www.corel.com/coreldraw/odm/2003">
 <defs>
  <style type="text/css">
   <![CDATA[
    .fil1 {fill:none;fill-rule:nonzero}
    .fil0 {fill:black;fill-rule:nonzero}
   ]]>
  </style>
 </defs>
 <g id="Слой_x0020_1">
  <metadata id="CorelCorpID_0Corel-Layer"/>
  <g id="_1856959096352">
   <path class="fil0" d="M486.7 216.13c3.9,-8.94 -2,-17.52 -7.26,-20.04 -6.2,-3 -19.25,-1.73 -27.09,-1.73 -56.59,0 -93.52,-1.52 -145.65,30.14 -115.57,70.22 -129.34,223.86 -39.03,313.92 70.22,70.01 141.44,59.7 234.07,59.76 64.96,0.06 75.74,-67.33 37.4,-96.05 -31.25,-23.41 -113.51,0.32 -158.75,-17.73 -84.06,-33.5 -78.8,-143.29 -6.05,-175.74 29.3,-13.1 73.44,-8.68 108.57,-8.68l145.81 0c36.71,0.16 25.14,-24.04 20.57,-27.93 -5.95,-5.16 -16.36,-3.9 -25.24,-3.9 -39.19,0 -78.38,0 -117.56,0 -90.26,0 -138.86,-9.89 -189.31,45.6 -65.44,71.9 -21.61,197.2 83,208.77 22.09,2.42 103.1,-2.42 115.03,2.16 16.04,6.15 19.31,26.93 5.42,37.24 -9.94,7.41 -40.14,4.32 -54.18,4.32 -38.88,0 -71.96,2.68 -108.1,-9.15 -54.81,-17.89 -98.83,-63.64 -113.09,-121.93 -23.15,-94.78 41.14,-190.84 137.34,-206.67 18.36,-3.05 37.61,-2.32 56.81,-2.32 22.51,0 41.18,4 47.29,-10.05l0 0 -0.01 0z"/>
   <path class="fil0" d="M734.66 540.68c-0.32,-9.1 -1.1,-17.89 -2.58,-26.83 -2.74,-16.04 -7.26,-31.29 -13.36,-45.5 -6.1,-13.99 -13.04,-26.88 -21.04,-37.77 -25.56,-34.66 -56.75,-60.39 -101.26,-75.11 -37.45,-12.41 -66.22,-9.99 -106.41,-10.15 -41.18,-0.16 -75.69,-6.21 -96.68,21.09 -23.04,30.03 -7.68,65.17 16.78,78.95 15.52,8.73 33.66,6.47 52.81,6.47 19.62,0 39.24,0 58.81,0 118.98,0 137.87,149.85 41.34,185.42 -26.3,9.68 -80.53,6.1 -111.88,6.1 -38.77,0 -77.63,0.22 -116.4,0 -17.83,-0.1 -42.5,-4.53 -45.44,12.94 -1.48,8.79 4,16.15 10.57,18.09 6.26,1.84 132.45,0.79 145.39,0.79 32.35,0 85.22,3.11 113.88,-4.1 89.1,-22.35 127.19,-126.19 72.8,-199.46 -20.04,-26.99 -53.75,-49.18 -95,-51.34 -20.62,-1.05 -101.73,4.05 -113.25,-3.84 -14.57,-9.94 -11.41,-31.29 3.31,-37.61 8.26,-3.53 45.13,-1.73 57.07,-1.73 40.08,0 70.27,-2.32 105.77,10.78 51.81,18.99 96.52,64.02 109.3,124.71 20.2,95.41 -45.24,188.79 -142.44,202.88 -18.09,2.63 -38.72,1.68 -57.38,1.68 -16.94,0 -41.71,-4.53 -43.55,14.1 -2.11,21.83 23.72,17.73 41.24,17.73 18.94,0 38.82,0.73 57.28,-1.58 61.54,-7.68 112.62,-40.61 145.75,-88.32 27.04,-38.92 33.61,-72.9 34.56,-118.4l0 0 0.01 0z"/>
   <rect class="fil1" width="943.37" height="943.37"/>
  </g>
 </g>
</svg>
