<?xml version="1.0" encoding="UTF-8"?>
<!DOCTYPE svg PUBLIC "-//W3C//DTD SVG 1.1//EN" "http://www.w3.org/Graphics/SVG/1.1/DTD/svg11.dtd">
<!-- Creator: CorelDRAW -->
<svg xmlns="http://www.w3.org/2000/svg" xml:space="preserve" width="30.2842mm" height="31.9673mm" version="1.1" style="shape-rendering:geometricPrecision; text-rendering:geometricPrecision; image-rendering:optimizeQuality; fill-rule:evenodd; clip-rule:evenodd"
viewBox="0 0 232.08 244.98"
 xmlns:xlink="http://www.w3.org/1999/xlink"
 xmlns:xodm="http://www.corel.com/coreldraw/odm/2003">
 <defs>
  <style type="text/css">
   <![CDATA[
    .fil0 {fill:#FEFEFE;fill-rule:nonzero}
   ]]>
  </style>
 </defs>
 <g id="Слой_x0020_1">
  <metadata id="CorelCorpID_0Corel-Layer"/>
  <path class="fil0" d="M122.66 9.72c1.72,-3.95 -0.88,-7.73 -3.2,-8.84 -2.74,-1.32 -8.49,-0.76 -11.95,-0.76 -24.97,0 -41.27,-0.67 -64.27,13.3 -51,30.99 -57.07,98.78 -17.22,138.52 30.99,30.89 62.41,26.34 103.29,26.37 28.66,0.03 33.42,-29.71 16.5,-42.38 -13.79,-10.33 -50.09,0.14 -70.05,-7.82 -37.09,-14.78 -34.77,-63.23 -2.67,-77.55 12.93,-5.78 32.41,-3.83 47.91,-3.83l64.34 0c16.2,0.07 11.09,-10.61 9.08,-12.32 -2.63,-2.28 -7.22,-1.72 -11.14,-1.72 -17.29,0 -34.59,0 -51.87,0 -39.83,0 -61.27,-4.36 -83.54,20.12 -28.88,31.73 -9.54,87.02 36.62,92.12 9.75,1.07 45.49,-1.07 50.76,0.95 7.08,2.71 8.52,11.88 2.39,16.43 -4.39,3.27 -17.71,1.91 -23.91,1.91 -17.16,0 -31.75,1.18 -47.7,-4.04 -24.19,-7.89 -43.61,-28.08 -49.9,-53.8 -10.22,-41.82 18.15,-84.21 60.6,-91.19 8.1,-1.35 16.6,-1.02 25.07,-1.02 9.93,0 18.17,1.76 20.87,-4.43l0 0 -0 0 0 0z"/>
  <path class="fil0" d="M232.08 152.93c-0.14,-4.02 -0.49,-7.89 -1.14,-11.84 -1.21,-7.08 -3.2,-13.81 -5.9,-20.08 -2.69,-6.17 -5.75,-11.86 -9.28,-16.67 -11.28,-15.29 -25.04,-26.65 -44.68,-33.14 -16.53,-5.48 -29.22,-4.41 -46.95,-4.48 -18.17,-0.07 -33.4,-2.74 -42.66,9.31 -10.17,13.25 -3.39,28.76 7.4,34.84 6.85,3.85 14.85,2.85 23.3,2.85 8.66,0 17.31,0 25.95,0 52.5,0 60.84,66.12 18.24,81.82 -11.61,4.27 -35.53,2.69 -49.37,2.69 -17.11,0 -34.25,0.1 -51.36,0 -7.87,-0.04 -18.75,-2 -20.05,5.71 -0.65,3.88 1.76,7.13 4.66,7.98 2.76,0.81 58.45,0.35 64.15,0.35 14.27,0 37.6,1.37 50.25,-1.81 39.32,-9.86 56.12,-55.68 32.12,-88.01 -8.84,-11.91 -23.72,-21.7 -41.92,-22.65 -9.1,-0.46 -44.89,1.79 -49.97,-1.69 -6.43,-4.39 -5.03,-13.81 1.46,-16.6 3.64,-1.56 19.91,-0.76 25.18,-0.76 17.69,0 31.01,-1.02 46.67,4.76 22.86,8.38 42.59,28.25 48.23,55.03 8.91,42.1 -19.96,83.31 -62.85,89.52 -7.98,1.16 -17.09,0.74 -25.32,0.74 -7.47,0 -18.41,-2 -19.22,6.22 -0.93,9.63 10.47,7.82 18.2,7.82 8.36,0 17.13,0.32 25.28,-0.7 27.16,-3.39 49.7,-17.92 64.31,-38.97 11.93,-17.17 14.83,-32.17 15.25,-52.25l0 0 0 0 -0 0.01z"/>
 </g>
</svg>
