<svg width="32" height="45" viewBox="0 0 32 45" fill="none" xmlns="http://www.w3.org/2000/svg">
<path fill-rule="evenodd" clip-rule="evenodd" d="M14.5604 0.0946722C13.698 0.240201 12.6157 0.582779 11.0445 1.20749C10.2048 1.54146 9.47154 1.81466 9.4152 1.81466C9.35886 1.81466 9.22782 1.90824 9.12388 2.02258C8.976 2.18542 8.94276 2.37935 8.9705 2.91726C9.00526 3.59026 8.99684 3.61446 8.54685 4.13441C7.36041 5.50558 7.05538 7.35024 7.69955 9.25771L7.93614 9.95846L7.71725 10.251C7.54099 10.4866 7.499 10.7044 7.50148 11.3689C7.50537 12.3826 7.77121 13.2166 8.20696 13.5818C8.43654 13.7744 8.59887 14.0904 8.80277 14.7413C9.41336 16.6907 10.5961 18.6159 11.7262 19.4998C13.0193 20.5112 14.3341 20.9641 15.9892 20.9683C18.224 20.974 20.1168 20.049 21.4854 18.2822C22.1403 17.4369 23.0119 15.733 23.325 14.6859C23.4903 14.1331 23.6437 13.844 23.8677 13.6633C24.2452 13.3588 24.463 12.8684 24.6015 12.0116C24.7267 11.2364 24.5853 10.3266 24.3045 10.1018C24.1173 9.9519 24.1195 9.92049 24.361 9.32493C24.7285 8.41831 24.8544 7.58698 24.7898 6.49352C24.691 4.81892 24.0936 3.5368 22.8353 2.29804C21.7531 1.23265 20.3473 0.544382 18.4348 0.143506C17.6387 -0.0234276 15.4258 -0.0512867 14.5604 0.0946722ZM8.14597 24.1952C5.74924 24.5616 4.98569 24.7748 3.88247 25.386C1.85736 26.5081 0.409928 28.6961 0.108568 31.0907C-0.0317495 32.2058 -0.0379034 40.4788 0.100903 41.3237C0.334371 42.744 1.28648 44.0236 2.57924 44.654L3.28882 45H28.8698L29.5175 44.6845C30.3449 44.2815 31.2777 43.3519 31.6831 42.5261L32 41.8808V30.4794L31.6961 29.6189C30.8407 27.1972 28.7755 25.2775 26.3873 24.6841C25.6164 24.4926 21.6109 23.9077 21.5469 23.9773C21.5224 24.004 21.4454 25.4053 21.3758 27.0913L21.2494 30.1567L18.7314 37.3489L17.504 27.9462L18.4107 26.3505C18.9094 25.4728 19.3174 24.6862 19.3174 24.6024C19.3174 24.5186 19.2418 24.3426 19.1494 24.2111C18.983 23.9745 18.9527 23.972 16.1741 23.972C14.4453 23.972 13.2865 24.0148 13.1579 24.0833C12.7618 24.2946 12.8997 24.7804 13.8187 26.4093L14.6882 27.9507L14.0898 32.5392C13.7607 35.0627 13.4741 37.145 13.4527 37.1662C13.4314 37.1874 12.8601 35.6673 12.1831 33.7883L10.9523 30.3718L10.7904 27.145C10.6354 24.055 10.6193 23.9175 10.4126 23.9001C10.2939 23.8901 9.27391 24.0229 8.14597 24.1952Z" fill="#107C02"/>
</svg>
