<svg width="25" height="25" viewBox="0 0 25 25" fill="none" xmlns="http://www.w3.org/2000/svg">
<path fill-rule="evenodd" clip-rule="evenodd" d="M3.39864 0.184229C1.85754 0.676962 0.663457 1.87251 0.19387 3.39281C0.0101574 3.9878 0 4.3102 0 9.56707C0 14.8239 0.0101574 15.1463 0.19387 15.7413C0.664433 17.2647 1.8759 18.4744 3.40421 18.9467C3.95037 19.1154 4.31545 19.1385 6.44304 19.1385H8.8611L9.11865 18.881C9.48041 18.5192 9.48549 17.8095 9.1289 17.4529L8.88161 17.2057L6.61396 17.1616C5.07989 17.1318 4.23565 17.0761 4.00438 16.9894C3.45226 16.7823 2.85864 16.3308 2.55626 15.8883C1.99643 15.0688 2.00219 15.1345 2.00219 9.56707C2.00219 4.87697 2.01723 4.39644 2.17838 3.93447C2.53545 2.91092 3.42364 2.22177 4.6272 2.03445C5.00322 1.97584 7.15308 1.95084 10.0244 1.97155C15.4544 2.01081 15.3631 1.99831 16.1961 2.81432C17.0528 3.65338 17.1881 4.22249 17.1889 6.99001L17.1895 8.85673L17.447 9.11428C17.814 9.48131 18.5184 9.48131 18.8854 9.11428L19.1429 8.85673V6.43867C19.1429 4.31108 19.1198 3.946 18.951 3.39984C18.4787 1.87154 17.2691 0.660066 15.7457 0.189503C15.1495 0.005399 14.8365 -0.00407477 9.53676 0.000906286C4.41341 0.005692 3.90983 0.0207328 3.39864 0.184229ZM5.92218 4.15979C5.66521 4.41685 5.66473 4.42037 5.6657 5.99106C5.66658 7.43449 5.68553 7.60531 5.89473 8.05322C6.22759 8.76609 6.57411 9.12756 7.24694 9.46373L7.84457 9.7624H9.57143H11.2983L11.8959 9.46373C12.5688 9.12756 12.9153 8.76609 13.2481 8.05322C13.4573 7.60531 13.4763 7.43449 13.4772 5.99106C13.4781 4.42037 13.4777 4.41685 13.2207 4.15979C12.8583 3.79754 12.1492 3.79295 11.7915 4.15051C11.554 4.38804 11.5418 4.45641 11.5081 5.73761C11.4572 7.6729 11.3716 7.76021 9.52739 7.76021C7.74329 7.76021 7.61964 7.61713 7.61867 5.55156C7.61808 4.4566 7.60919 4.40836 7.36063 4.15979C7.15504 3.9542 7.01 3.90234 6.6414 3.90234C6.27281 3.90234 6.12777 3.9542 5.92218 4.15979ZM16.457 11.4823C16.1347 11.5599 15.4974 11.8069 15.0408 12.0311C14.3693 12.3611 14.0419 12.6079 13.3271 13.3227C11.9056 14.744 11.3324 16.1348 11.3324 18.1618C11.3324 19.4294 11.5084 20.211 12.0363 21.2872C12.366 21.9595 12.6113 22.2854 13.3271 23.001C14.7484 24.4224 16.1392 24.9956 18.1662 24.9956C19.4337 24.9956 20.2154 24.8196 21.2916 24.2917C21.9639 23.962 22.2897 23.7167 23.0053 23.001C24.4268 21.5796 25 20.1888 25 18.1618C25 16.8943 24.824 16.1127 24.2961 15.0365C23.9664 14.3641 23.721 14.0383 23.0053 13.3227C21.5658 11.8832 20.1856 11.3218 18.1174 11.3347C17.5265 11.3384 16.7793 11.4048 16.457 11.4823ZM20.152 13.7911C21.4267 14.3983 22.404 15.5335 22.8134 16.8825C22.9888 17.4603 22.9888 18.8634 22.8134 19.4412C22.4041 20.7899 21.4212 21.9317 20.1489 22.5365C19.3961 22.8944 19.3725 22.8987 18.1662 22.8987C16.9575 22.8987 16.9377 22.8951 16.1804 22.5334C15.1376 22.0355 14.2853 21.1832 13.7916 20.1446C13.4336 19.3918 13.4293 19.3681 13.4293 18.1618C13.4293 16.9555 13.4336 16.9319 13.7916 16.1791C14.3828 14.9351 15.5093 13.9506 16.8477 13.5082C17.0988 13.4251 17.6222 13.3875 18.3127 13.4029C19.3278 13.4253 19.4292 13.4467 20.152 13.7911ZM17.447 15.4892C17.2154 15.7208 17.1895 15.8192 17.1895 16.4659V17.1851H16.4703C15.8235 17.1851 15.7252 17.211 15.4936 17.4426C15.1266 17.8096 15.1266 18.514 15.4936 18.881C15.7252 19.1126 15.8235 19.1385 16.4703 19.1385H17.1895V19.8577C17.1895 20.5045 17.2154 20.6028 17.447 20.8344C17.6526 21.04 17.7976 21.0919 18.1662 21.0919C18.5348 21.0919 18.6798 21.04 18.8854 20.8344C19.117 20.6028 19.1429 20.5045 19.1429 19.8577V19.1385H19.8621C20.5088 19.1385 20.6072 19.1126 20.8388 18.881C21.0444 18.6755 21.0962 18.5304 21.0962 18.1618C21.0962 17.7932 21.0444 17.6482 20.8388 17.4426C20.6072 17.211 20.5088 17.1851 19.8621 17.1851H19.1429V16.4659C19.1429 15.8192 19.117 15.7208 18.8854 15.4892C18.6798 15.2837 18.5348 15.2318 18.1662 15.2318C17.7976 15.2318 17.6526 15.2837 17.447 15.4892Z" fill="#107C02"/>
</svg>
