<svg width="25" height="22" viewBox="0 0 25 22" fill="none" xmlns="http://www.w3.org/2000/svg">
<path d="M19.8452 0C22.6918 0 25 2.30824 25 5.15476C24.9999 6.59545 24.4086 7.89813 23.4555 8.83333C22.9797 9.30022 22.6884 9.96136 22.8483 10.6085L24.6079 17.7225C25.1201 19.7944 23.5519 21.7972 21.4176 21.7973C19.9066 21.7973 18.5901 20.7669 18.2273 19.3001L16.1822 11.0316C16.0117 10.3428 15.3939 9.85852 14.6843 9.85849H11.4619C11.0333 9.85849 10.653 9.58441 10.5174 9.1778L7.89713 1.31067C7.68261 0.665978 8.16315 6.16787e-06 8.84264 0H19.8452Z" fill="white"/>
<path d="M1.27136 11.5767C1.49135 11.5767 1.66963 11.7561 1.66963 11.976V18.4166C1.66963 18.6366 1.49135 18.8149 1.27136 18.8149H0.39827C0.178283 18.8149 0 18.6366 0 18.4166V11.976C0 11.7561 0.178283 11.5767 0.39827 11.5767H1.27136Z" fill="white"/>
<path d="M4.85683 17.018C5.07682 17.018 5.2551 17.1963 5.2551 17.4163V18.4166C5.2551 18.6366 5.07682 18.8149 4.85683 18.8149H3.98374C3.76375 18.8149 3.58443 18.6366 3.58443 18.4166V17.4163C3.58443 17.1963 3.76375 17.018 3.98374 17.018H4.85683Z" fill="white"/>
<path d="M8.4423 17.018C8.66222 17.0181 8.84057 17.1964 8.84057 17.4163V18.4166C8.84057 18.6366 8.66222 18.8148 8.4423 18.8149H7.56817C7.34833 18.8147 7.1699 18.6365 7.1699 18.4166V17.4163C7.1699 17.1964 7.34833 17.0182 7.56817 17.018H8.4423Z" fill="white"/>
<path d="M12.0278 11.5767C12.2476 11.5769 12.426 11.7562 12.426 11.976V18.4166C12.426 18.6365 12.2476 18.8147 12.0278 18.8149H11.1536C10.9337 18.8148 10.7554 18.6366 10.7554 18.4166V11.976C10.7554 11.7561 10.9337 11.5768 11.1536 11.5767H12.0278Z" fill="white"/>
<path d="M4.85683 11.5767C5.07682 11.5767 5.2551 11.7561 5.2551 11.976V15.7229C5.25503 15.9428 5.07678 16.1212 4.85683 16.1212H3.98374C3.76379 16.1212 3.5845 15.9428 3.58443 15.7229V11.976C3.58443 11.7561 3.76375 11.5767 3.98374 11.5767H4.85683Z" fill="white"/>
<path d="M8.4423 11.5767C8.66222 11.5768 8.84057 11.7561 8.84057 11.976V15.7229C8.8405 15.9428 8.66218 16.1211 8.4423 16.1212H7.56817C7.34837 16.121 7.16997 15.9427 7.1699 15.7229V11.976C7.1699 11.7562 7.34833 11.5769 7.56817 11.5767H8.4423Z" fill="white"/>
</svg>
