<svg width="30" height="30" viewBox="0 0 30 30" fill="none" xmlns="http://www.w3.org/2000/svg">
<path fill-rule="evenodd" clip-rule="evenodd" d="M11.1834 0.0339305C10.456 0.126043 9.87345 0.418453 9.3251 0.966808C8.98387 1.30804 8.95333 1.3515 8.28711 2.44526L7.60071 3.57218L5.77587 3.58604L3.95103 3.59993L3.59945 3.68639C1.78858 4.13178 0.482226 5.45913 0.0780831 7.26438L0 7.61324V15.013C0 22.0522 0.00297989 22.4267 0.0611404 22.6967C0.266527 23.6498 0.676095 24.4218 1.32259 25.0744C1.93831 25.6959 2.61913 26.0884 3.4906 26.3243L3.88406 26.4308L9.09908 26.4399C11.9674 26.4449 14.3141 26.4401 14.3141 26.4292C14.3141 26.4183 14.2479 26.3004 14.167 26.1671C13.7068 25.409 13.2977 24.3772 13.0967 23.4676C12.9227 22.6802 12.8916 22.3729 12.8913 21.4343L12.8911 20.5562L12.7906 20.536C12.3704 20.4519 11.6212 20.1587 11.1527 19.8949C10.5144 19.5355 9.78492 18.9233 9.32493 18.361C8.67331 17.5643 8.18958 16.534 7.97947 15.4952C7.91113 15.1575 7.90232 15.019 7.90299 14.2932C7.9037 13.5312 7.91013 13.443 7.99363 13.0536C8.4245 11.0436 9.66813 9.43791 11.4829 8.5484C14.6201 7.01061 18.4067 8.28853 20.003 11.4238C20.0937 11.6021 20.2165 11.8835 20.2757 12.0491C20.3713 12.3162 20.3914 12.3483 20.4543 12.3334C20.9707 12.2111 22.2619 12.1487 22.9361 12.2134C23.7127 12.288 24.4198 12.4373 25.1228 12.675C26.1484 13.0219 27.2142 13.6191 28.0213 14.2992C28.2031 14.4524 28.4033 14.6211 28.4661 14.674L28.5803 14.7703L28.5694 11.1583L28.5587 7.54627L28.4711 7.1947C28.0172 5.37087 26.7064 4.08705 24.8613 3.659C24.6435 3.60847 24.3697 3.599 22.7962 3.58755L20.9822 3.57435L20.3893 2.56356C19.6756 1.34698 19.5893 1.22195 19.2276 0.881024C18.711 0.39401 18.1174 0.118409 17.3954 0.0303812C17.0459 -0.012243 11.5232 -0.00906204 11.1834 0.0339305ZM13.6612 10.0424C12.027 10.298 10.6986 11.4148 10.1948 12.9566C9.93861 13.7404 9.92234 14.729 10.1524 15.532C10.5246 16.8314 11.5982 17.9444 12.8943 18.3744C13.3703 18.5323 13.3267 18.5495 13.4794 18.1437C13.7742 17.3606 14.345 16.3603 14.8837 15.6827C15.196 15.2899 15.8514 14.6295 16.2729 14.2829C16.7479 13.8922 17.4025 13.4628 17.9415 13.1882C18.4438 12.9323 18.427 13.0018 18.1319 12.4014C17.5516 11.2206 16.5163 10.4039 15.2182 10.1031C14.8886 10.0268 13.9862 9.99159 13.6612 10.0424ZM21.0945 13.6404C19.327 13.8909 17.8159 14.6403 16.5734 15.8828C15.9208 16.5354 15.4743 17.1575 15.0827 17.9596C14.7133 18.7163 14.5245 19.2926 14.3753 20.1192C14.2884 20.6004 14.2529 21.8209 14.3112 22.3187C14.5137 24.0454 15.2548 25.6354 16.4315 26.8679C17.6822 28.1778 19.2664 28.9919 21.0628 29.2477C21.6394 29.3298 22.6771 29.3301 23.2207 29.2482C24.1104 29.1143 24.8437 28.8873 25.6147 28.5071C27.1949 27.7281 28.4187 26.5043 29.1978 24.9241C29.5773 24.1543 29.8033 23.4248 29.9395 22.53C30.026 21.9611 30.0186 20.8523 29.9244 20.2699C29.6372 18.4951 28.8568 16.9898 27.5953 15.7769C26.4604 14.686 25.1338 14.0039 23.5605 13.7025C23.1592 13.6256 23.0014 13.6136 22.2664 13.6039C21.6707 13.5962 21.3327 13.6067 21.0945 13.6404ZM22.4359 16.541C22.5949 16.6158 22.7203 16.7519 22.7863 16.9217C22.8147 16.9944 22.8241 17.5356 22.8205 18.8879L22.8156 20.7538L24.7397 20.763L26.6637 20.7722L26.8073 20.8731C27.2556 21.1882 27.2128 21.8097 26.7248 22.0706C26.5859 22.1449 26.5835 22.145 24.7206 22.145H22.8554L22.8455 24.0201C22.8357 25.884 22.8352 25.896 22.7612 26.0342C22.4621 26.5936 21.6826 26.5414 21.4841 25.9487C21.4575 25.8691 21.446 25.2802 21.446 23.9899V22.1449L19.5787 22.145L17.7113 22.145L17.5449 22.0594C17.1334 21.848 17.0358 21.3441 17.3392 20.9984C17.5576 20.7497 17.4902 20.757 19.5794 20.7562L21.446 20.7554V18.896C21.446 17.2908 21.4531 17.0196 21.498 16.9122C21.6544 16.5379 22.0751 16.3714 22.4359 16.541Z" fill="#107C02"/>
</svg>
