<svg width="40" height="30" viewBox="0 0 40 30" fill="none" xmlns="http://www.w3.org/2000/svg">
<path fill-rule="evenodd" clip-rule="evenodd" d="M15.6244 0.0560003C15.3659 0.120674 15.0208 0.29367 14.7153 0.511694C14.5868 0.603462 12.9348 2.48666 11.0443 4.69659L7.60686 8.71473L5.01226 8.71655C3.58523 8.7176 2.26861 8.7426 2.08644 8.77218C1.04225 8.9418 0.169583 9.82958 0.0244509 10.8699C-0.145964 12.0918 0.5893 13.2456 1.7657 13.6024C1.91177 13.6467 2.10576 13.6836 2.19685 13.6844C2.28793 13.6852 2.38901 13.7041 2.42142 13.7264C2.45382 13.7487 2.97236 16.7219 3.57364 20.3336C4.17498 23.9453 4.70152 27.0368 4.7438 27.2038C5.00817 28.2473 5.79903 29.1667 6.83676 29.637C7.59383 29.9801 6.89643 29.9629 19.9726 29.9629C33.3873 29.9629 32.3669 29.995 33.3002 29.5428C33.7366 29.3313 33.9011 29.2127 34.2429 28.8636C34.6974 28.3993 34.9557 28.0043 35.1327 27.5035C35.2409 27.1969 37.4416 14.236 37.4438 13.8921C37.4445 13.7797 37.4763 13.7357 37.5689 13.7188C37.6372 13.7063 37.8401 13.669 38.0197 13.6359C39.1981 13.4189 40.0828 12.1883 39.9487 10.9526C39.9027 10.5284 39.8157 10.2838 39.5816 9.92063C39.3439 9.55168 39.1498 9.35777 38.7807 9.11999C38.2034 8.74823 38.2627 8.75463 35.1653 8.73189L32.3616 8.71131L28.8833 4.65631C26.1545 1.47512 25.3418 0.560861 25.1115 0.413635C24.0617 -0.257655 22.7026 -0.0979025 21.8986 0.791357C21.2152 1.5473 21.0545 2.64459 21.4927 3.56238C21.6553 3.90302 21.7988 4.07613 24.9341 7.71422C25.3858 8.23829 25.7438 8.67859 25.7297 8.69271C25.7157 8.70679 23.1122 8.71197 19.9443 8.70425L14.1845 8.69018L16.073 6.49426C17.1116 5.28654 18.0697 4.15669 18.2019 3.98347C18.5594 3.51509 18.695 3.11209 18.6975 2.50978C18.7021 1.45652 18.2328 0.71951 17.2474 0.232197C16.8809 0.0509235 16.7912 0.0297888 16.3366 0.0175384C16.0592 0.0100888 15.7388 0.027416 15.6244 0.0560003ZM13.0007 16.3559C13.2704 16.4846 13.4787 16.6961 13.6032 16.9675C13.698 17.174 13.7045 17.4078 13.7045 20.6095C13.7045 24.439 13.7198 24.2833 13.3063 24.6462C13.0367 24.8828 12.7691 24.9609 12.3448 24.9268C11.9052 24.8916 11.6215 24.7172 11.4052 24.3493L11.2503 24.086V20.6095C11.2503 17.156 11.2511 17.1316 11.3692 16.9123C11.6942 16.3086 12.3987 16.0682 13.0007 16.3559ZM17.9576 16.3375C18.2915 16.4888 18.4442 16.6387 18.5993 16.9675L18.7294 17.2434L18.7299 20.5975C18.7306 24.2277 18.7394 24.113 18.4277 24.5215C18.0156 25.0615 16.9979 25.0765 16.5531 24.5491C16.2373 24.1747 16.2462 24.2904 16.2475 20.5975C16.2487 17.394 16.2549 17.1749 16.3512 16.9675C16.6388 16.3478 17.3581 16.0658 17.9576 16.3375ZM22.9352 16.3252C23.2136 16.4446 23.4865 16.7065 23.6273 16.9891C23.7195 17.1743 23.7265 17.4281 23.7265 20.6095C23.7265 24.0096 23.7258 24.0322 23.6074 24.2515C23.3609 24.7081 22.9761 24.9413 22.4694 24.9413C21.87 24.9413 21.3946 24.5533 21.2673 23.9599C21.2309 23.7903 21.2162 22.5259 21.2264 20.4416C21.241 17.4491 21.2502 17.1706 21.3415 16.9683C21.4791 16.6634 21.6379 16.5055 21.9599 16.3537C22.293 16.1967 22.614 16.1873 22.9352 16.3252ZM27.9772 16.354C28.129 16.4258 28.3206 16.5563 28.4029 16.644C28.7232 16.9854 28.7225 16.9763 28.7225 20.6378V23.9906L28.5683 24.2857C28.3407 24.7211 28.0631 24.896 27.5527 24.9257C27.0377 24.9558 26.7461 24.8204 26.4607 24.4189L26.2659 24.1448L26.2505 20.7336C26.2398 18.3807 26.2539 17.2524 26.2957 17.0971C26.3703 16.8205 26.7914 16.3821 27.0663 16.295C27.3829 16.1947 27.6809 16.214 27.9772 16.354Z" fill="#107C02"/>
</svg>
