<svg width="25" height="31" viewBox="0 0 25 31" fill="none" xmlns="http://www.w3.org/2000/svg">
<path fill-rule="evenodd" clip-rule="evenodd" d="M5.9342 0.0864965C4.75514 0.342474 3.56542 1.3524 3.10328 2.4897C3.02568 2.68063 2.96223 2.85071 2.96223 2.86765C2.96223 2.88459 3.45831 2.89846 4.06469 2.89846H5.16715L5.48664 2.60646C5.67662 2.43283 5.94 2.26435 6.13639 2.19089C6.46558 2.06773 6.48952 2.06737 14.0003 2.08301L21.5341 2.09871L21.8509 2.27418C22.2633 2.50261 22.6521 2.9404 22.8045 3.34785C22.9254 3.67083 22.9262 3.73671 22.9262 12.9989C22.9262 22.2612 22.9254 22.327 22.8045 22.65C22.7377 22.8289 22.5638 23.1077 22.4182 23.2696C22.1756 23.5394 21.6501 23.8695 21.4632 23.8695C21.4002 23.8695 21.386 22.7236 21.386 17.6555C21.386 11.5156 21.3845 11.4367 21.2618 11.0354C21.0174 10.2361 20.9307 10.1327 18.2522 7.44859C15.7736 4.96464 15.7197 4.91523 15.2346 4.68224C14.9628 4.55174 14.6015 4.41608 14.4316 4.38077C14.2193 4.33669 12.4181 4.32194 8.67572 4.33361L3.22881 4.35061L2.84375 4.48894C1.70734 4.89717 0.914706 5.58714 0.417325 6.60098C-0.0231272 7.49894 0.000214364 6.89682 0.000214364 17.3537C0.000214364 27.7372 -0.0221191 27.1261 0.389246 27.9932C0.796819 28.8523 1.44147 29.5055 2.28891 29.918C3.17698 30.3502 2.77627 30.3318 10.8894 30.313C17.7853 30.297 18.1741 30.2905 18.4832 30.1863C20.2124 29.6033 21.386 28.0759 21.386 26.4085C21.386 26.0157 21.3905 26.0034 21.5489 25.9692C22.5711 25.7479 23.1417 25.4447 23.8164 24.7641C24.3901 24.1853 24.6812 23.6737 24.8807 22.894C24.9973 22.4378 24.9996 22.2477 24.9996 13.0159C24.9996 2.47761 25.029 3.20692 24.5666 2.24681C24.3674 1.83326 24.2283 1.64766 23.788 1.20815C23.3603 0.781148 23.1503 0.622266 22.7485 0.421678C21.8555 -0.024046 22.3072 -0.00271942 13.8624 0.0014274C7.68747 0.00444866 6.24089 0.0199696 5.9342 0.0864965ZM13.936 7.80059C13.9597 9.05394 13.9765 9.24582 14.0905 9.55825C14.4312 10.4921 15.0919 11.1452 15.9951 11.4409C16.3341 11.5519 16.5549 11.5701 17.8401 11.5927L19.3001 11.6186L19.336 11.7978C19.3969 12.1027 19.3762 26.1785 19.3142 26.5569C19.2046 27.2263 18.8328 27.743 18.2334 28.0588L17.9204 28.2237L10.8015 28.2395L3.68253 28.2551L3.33764 28.1261C2.86733 27.9502 2.37717 27.4607 2.20176 26.9918L2.07363 26.6494V17.3235V7.99757L2.20176 7.65516C2.37243 7.19895 2.8675 6.69766 3.31832 6.52462C3.63976 6.40128 3.70279 6.3998 8.77643 6.39672L13.9094 6.39364L13.936 7.80059ZM4.92759 11.851C4.8193 11.8827 4.6164 12.0229 4.47671 12.1626C3.91843 12.7209 4.01564 13.5733 4.68837 14.0185L4.93813 14.1837H8.40802H11.8779L12.1288 14.04C12.8028 13.654 12.9419 12.7447 12.4127 12.1849C12.0473 11.7985 12.2185 11.8152 8.5012 11.8037C6.45261 11.7974 5.04707 11.816 4.92759 11.851ZM4.8283 17.0794C4.56948 17.193 4.22286 17.6047 4.14615 17.8896C4.01902 18.3618 4.18578 18.7878 4.64128 19.1544L4.86894 19.3376H10.6888H16.5088L16.7549 19.1671C17.0896 18.9351 17.3249 18.4588 17.284 18.096C17.2421 17.7244 17.0612 17.4109 16.7697 17.205L16.5181 17.0273L10.762 17.0143C6.10807 17.0039 4.97202 17.0163 4.8283 17.0794ZM4.88754 22.2398C4.75721 22.2856 4.55313 22.4316 4.434 22.5644C3.87998 23.1821 4.067 24.0869 4.82137 24.4381L5.1245 24.5792L10.6566 24.5798C14.8464 24.5803 16.2473 24.5628 16.4305 24.508C16.9119 24.3637 17.297 23.8363 17.298 23.3197C17.2989 22.9209 16.9729 22.4561 16.5579 22.2639C16.3325 22.1595 16.0485 22.1542 10.7227 22.1555C6.07371 22.1565 5.08434 22.1709 4.88754 22.2398Z" fill="white"/>
</svg>
