<svg width="18" height="25" viewBox="0 0 18 25" fill="none" xmlns="http://www.w3.org/2000/svg">
<path fill-rule="evenodd" clip-rule="evenodd" d="M6.44878 0.0919881C5.94661 0.320053 5.84195 1.04272 6.25815 1.40815L6.42305 1.55293L4.87614 1.57358C3.59244 1.59077 3.27524 1.60902 3.01193 1.68088C2.62639 1.78617 1.97661 2.08209 1.67424 2.29014C0.878992 2.83727 0.211345 3.78917 0.0300934 4.63431C-0.0156466 4.84773 -0.0112532 4.92407 0.0571371 5.10318C0.152962 5.35419 0.355302 5.54012 0.609288 5.61066C0.86137 5.68066 16.39 5.68066 16.6421 5.61066C17.0714 5.49141 17.3172 5.08131 17.2228 4.64148C17.1444 4.27551 16.9626 3.85829 16.7176 3.48153C16.2643 2.78464 15.7375 2.32319 14.9961 1.97392C14.2326 1.61415 14.1198 1.59692 12.3734 1.57358L10.8247 1.55289L10.9766 1.42504C11.4139 1.05712 11.3238 0.351198 10.8076 0.101361C10.6036 0.00260722 10.5278 -0.000907483 8.62247 0.000117639C6.80376 0.00109395 6.63296 0.00831862 6.44878 0.0919881ZM0.554321 7.34375C0.306974 7.43191 0.1514 7.58407 0.0580161 7.82908C-0.0129126 8.01521 -0.00783621 8.15013 0.130555 9.76212C0.21237 10.7152 0.389326 12.7911 0.523714 14.3752C0.658152 15.9592 0.811285 17.7605 0.864006 18.378C0.916726 18.9955 1.04819 20.5442 1.15621 21.8195C1.26419 23.0948 1.36573 24.2224 1.38174 24.3252C1.41645 24.5475 1.65032 24.8328 1.87463 24.9266C2.10899 25.0245 15.1424 25.0245 15.3768 24.9266C15.6009 24.8329 15.8349 24.5475 15.8698 24.3252C15.8966 24.1549 16.0742 22.0961 16.7049 14.6437C16.8264 13.2073 17.0031 11.1314 17.0976 10.0306C17.2596 8.14179 17.2648 8.01755 17.1909 7.82307C17.0983 7.57953 16.8938 7.3934 16.6421 7.3235C16.5206 7.28972 13.8634 7.2737 8.60129 7.27492C2.0717 7.27649 0.710287 7.28815 0.554321 7.34375ZM4.00723 9.97637C4.22079 10.0656 4.41816 10.2822 4.47922 10.4943C4.54976 10.7393 5.51211 21.3632 5.48628 21.6117C5.40564 22.3881 4.32506 22.5618 3.95856 21.8573C3.88729 21.7203 2.9143 11.3823 2.9143 10.7619C2.9143 10.388 3.03873 10.1768 3.35217 10.0184C3.60269 9.89182 3.77799 9.88059 4.00723 9.97637ZM8.87719 9.9586C9.12918 10.0286 9.39166 10.3334 9.42983 10.6004C9.44648 10.7166 9.45356 13.2736 9.4456 16.2826L9.43115 21.7535L9.30911 21.9336C9.16867 22.1411 8.86421 22.3077 8.6257 22.3077C8.37947 22.3077 8.06002 22.1319 7.93193 21.9259L7.82024 21.7463L7.80579 16.279C7.79784 13.2719 7.80482 10.7174 7.82127 10.6021C7.87116 10.2535 8.24084 9.91525 8.57688 9.91076C8.644 9.90983 8.77912 9.93141 8.87719 9.9586ZM13.8992 10.0184C14.2118 10.1763 14.3371 10.3882 14.3371 10.759C14.3371 11.3781 13.364 21.7206 13.2929 21.8572C12.9263 22.5618 11.8463 22.3883 11.7649 21.6117C11.7447 21.4191 12.6905 10.8319 12.7551 10.5273C12.7926 10.3506 13.0479 10.0594 13.2378 9.97661C13.4546 9.88215 13.6546 9.8948 13.8992 10.0184Z" fill="white"/>
</svg>
