<svg width="25" height="25" viewBox="0 0 25 25" fill="none" xmlns="http://www.w3.org/2000/svg">
<path fill-rule="evenodd" clip-rule="evenodd" d="M22.1159 0.0549794C22.0049 0.0818282 21.7927 0.162711 21.6443 0.234701C21.3192 0.392492 21.3507 0.364229 19.0003 2.61134C18.4068 3.17884 18.0083 3.55903 17.1637 4.36392C16.7375 4.76999 16.0708 5.40587 15.6821 5.77697C14.6751 6.73834 13.8903 7.48518 13.3743 7.97325L13.2905 8.05248L15.0922 9.85445C16.0832 10.8455 16.9108 11.6564 16.9313 11.6564C16.9518 11.6564 17.0497 11.5692 17.1489 11.4627C17.248 11.3561 17.6488 10.9355 18.0396 10.5279C18.4304 10.1202 19.2789 9.23342 19.9252 8.55715C21.5749 6.83088 21.7614 6.63593 22.1816 6.19904C22.3865 5.98597 22.8108 5.54254 23.1245 5.21368C23.4382 4.88483 23.7046 4.61573 23.7166 4.61573C23.7401 4.61573 23.7307 4.90373 23.6985 5.16837C23.672 5.38653 23.5696 5.68339 23.4079 6.01086C23.1555 6.52213 22.9255 6.81686 21.9469 7.8834C20.506 9.45377 18.9559 11.2772 18.4022 12.0532C18.2578 12.2554 18.242 12.2965 18.2311 12.4968C18.2208 12.6852 18.2307 12.7347 18.2985 12.8346C18.5066 13.1411 18.881 13.2235 19.1727 13.027C19.235 12.985 19.3812 12.83 19.4976 12.6825C20.7719 11.0675 22.0085 9.62679 23.1541 8.4224C24.2836 7.23502 24.8255 6.28026 24.9652 5.23157C25.0324 4.72775 24.9486 4.07377 24.7633 3.65484L24.6968 3.50453L24.7916 3.29374C25.0027 2.82438 25.0592 2.20692 24.9345 1.73318C24.7655 1.09184 24.2834 0.489377 23.7327 0.231501C23.2624 0.011287 22.5972 -0.0613428 22.1159 0.0549794ZM9.62601 12.524L6.02992 16.1201L7.41969 17.5096L8.80943 18.899L12.4055 15.3029L16.0016 11.7067L14.6118 10.3172L13.2221 8.92781L9.62601 12.524ZM3.68024 18.4697C2.65661 19.4935 1.81911 20.3429 1.81911 20.3573C1.81911 20.3967 4.52555 23.1102 4.56473 23.1101C4.58333 23.1101 5.43521 22.2725 6.45779 21.2488L8.31702 19.3876L6.94615 17.9974C6.19216 17.2328 5.5676 16.6075 5.5583 16.6078C5.54897 16.6081 4.70382 17.446 3.68024 18.4697ZM5.87463 17.7523C5.9802 17.7925 6.07483 17.967 6.04535 18.0671C6.01861 18.1579 3.45739 20.7361 3.32315 20.8073C3.24419 20.8492 3.20936 20.851 3.12787 20.8172C3.00939 20.7682 2.91853 20.61 2.94915 20.506C2.97412 20.4212 5.57383 17.797 5.67631 17.7532C5.76588 17.7149 5.77596 17.7148 5.87463 17.7523ZM7.10556 18.9879C7.18375 19.0873 7.1949 19.2271 7.13076 19.3034C7.10738 19.3312 6.49666 19.9414 5.77367 20.6593C4.6226 21.8023 4.44635 21.9647 4.35674 21.9647C4.213 21.9647 4.07643 21.8307 4.07515 21.6884C4.07424 21.5864 4.18484 21.4677 5.42578 20.2382C6.73311 18.943 6.78162 18.8991 6.90657 18.8991C7.00601 18.8991 7.05183 18.9196 7.10556 18.9879ZM1.42642 21.097C0.905043 21.6517 0.593132 22.3727 0.518953 23.1949C0.498841 23.418 0.452589 23.5686 0.247366 24.0797C0.111303 24.4185 0 24.7231 0 24.7567C0 24.8264 0.100792 24.9292 0.169178 24.9292C0.194477 24.9292 0.504063 24.8166 0.85714 24.6789C1.3708 24.4787 1.54958 24.4243 1.75174 24.4068C2.31287 24.3581 2.85402 24.184 3.30678 23.9064C3.56813 23.7462 3.94108 23.4461 3.94061 23.3964C3.94044 23.3779 3.79275 23.2185 3.61239 23.0421C3.43206 22.8659 2.88963 22.3314 2.40702 21.8545L1.52954 20.9874L1.42642 21.097Z" fill="white"/>
</svg>
