<svg width="45" height="30" viewBox="0 0 45 30" fill="none" xmlns="http://www.w3.org/2000/svg">
<path fill-rule="evenodd" clip-rule="evenodd" d="M3.66663 0.0393943C3.45778 0.0708752 3.77461 0.295638 5.86502 1.59858C7.20832 2.4359 11.4867 5.10422 15.3728 7.52816C19.2587 9.9522 22.469 11.9354 22.5067 11.9354C22.5444 11.9354 26.8019 9.2998 31.9677 6.07863C37.1336 2.85738 41.422 0.197239 41.4976 0.167341C41.5946 0.128913 41.5574 0.0958491 41.3711 0.054959C41.0886 -0.00712348 4.07579 -0.0224244 3.66663 0.0393943ZM0.052826 3.60351C-0.0337026 3.92659 -0.00661923 25.2932 0.0811405 25.9001C0.291043 27.3519 1.28841 28.5384 2.77452 29.1045L3.29501 29.3027H22.465H41.6349L42.22 29.1005C43.7077 28.5863 44.7319 27.3643 44.9405 25.8545C45.0308 25.2012 45.0131 3.54495 44.9223 3.45411C44.8925 3.4243 43.7054 4.12594 42.2842 5.01338C38.7549 7.21714 31.0963 11.9912 26.9937 14.5448C25.1316 15.7038 23.4696 16.7079 23.3004 16.7762C22.9043 16.9357 22.1115 16.9352 21.7175 16.775C21.42 16.6541 18.9645 15.135 6.16532 7.154C2.85911 5.09244 0.143224 3.40566 0.129945 3.40566C0.116755 3.40566 0.0820206 3.49465 0.052826 3.60351Z" fill="#107C02"/>
</svg>
