<svg width="25" height="25" viewBox="0 0 25 25" fill="none" xmlns="http://www.w3.org/2000/svg">
<path d="M9.94837 0.875999C11.4551 -0.292714 13.5622 -0.291903 15.0681 0.877852L23.3863 7.33943C24.4044 8.13027 25 9.34714 25 10.6363V20.752C25 23.0576 23.1309 24.9267 20.8253 24.9267H4.17467C1.86908 24.9267 2.92211e-05 23.0576 0 20.752V10.6381C0 9.34798 0.596503 8.13019 1.6159 7.33943L9.94837 0.875999ZM8.80779 23.0322C8.28672 23.0323 7.86425 23.4546 7.86419 23.9756C7.86418 24.4968 8.28667 24.9194 8.80779 24.9194H16.248C16.7691 24.9194 17.1915 24.4969 17.1916 23.9758C17.1916 23.4547 16.7691 23.0322 16.248 23.0322H8.80779ZM13.904 2.37646C13.0826 1.73842 11.9334 1.73806 11.1116 2.37553L2.7791 8.83877C2.22305 9.2701 1.89758 9.93441 1.89758 10.6381V20.752C1.8976 22.0096 2.91708 23.0291 4.17467 23.0291H20.8253C22.0829 23.0291 23.1024 22.0096 23.1024 20.752V10.6363C23.1024 9.93312 22.7775 9.2694 22.2222 8.83803L13.904 2.37646Z" fill="#107C02"/>
</svg>
