<svg width="30" height="30" viewBox="0 0 30 30" fill="none" xmlns="http://www.w3.org/2000/svg">
<path fill-rule="evenodd" clip-rule="evenodd" d="M9.98435 0.00994645C7.43206 0.153976 5.9778 0.46331 4.57174 1.16127C2.03007 2.42297 0.605693 4.68047 0.163615 8.14788C0.00650252 9.38008 -0.0129745 10.2996 0.0059592 15.5939C0.0245585 20.7851 0.0280694 20.9025 0.202485 22.1146C0.563019 24.6204 1.50933 26.5457 2.98758 27.7808C4.29296 28.8715 5.90696 29.5204 8.01993 29.8041C9.22855 29.9663 9.45425 29.9718 14.9999 29.9718C20.5455 29.9718 20.7712 29.9663 21.9799 29.8041C24.1363 29.5146 25.7992 28.8325 27.0979 27.7048C28.6155 26.387 29.5468 24.3516 29.8555 21.6778C29.9838 20.5668 30.0102 19.4428 29.9969 15.6566C29.9838 11.9196 29.9838 11.9156 29.8939 11.7486C29.5112 11.0373 28.5666 10.9336 28.0962 11.5511C28.0213 11.6494 27.9406 11.7999 27.9169 11.8855C27.8905 11.9804 27.8735 12.6741 27.8734 13.6608C27.8733 14.5516 27.8632 15.2804 27.8511 15.2804C27.839 15.2804 27.665 15.1425 27.4645 14.974C27.0057 14.5885 26.9252 14.5337 26.5148 14.3282C25.945 14.0428 25.5508 13.9638 24.6966 13.9638C24.0618 13.9638 23.9155 13.9769 23.589 14.0625C23.1587 14.1755 22.6227 14.4282 22.3034 14.6686C22.1829 14.7592 20.7799 15.9543 19.1855 17.3244C17.5911 18.6944 16.1962 19.8773 16.0858 19.953C15.6665 20.2406 15.1187 20.351 14.5961 20.2534C14.1812 20.176 13.9442 20.0472 13.4743 19.6439C12.9793 19.2191 12.8066 19.0957 12.4712 18.9271C11.2984 18.3377 9.71196 18.3604 8.58852 18.9827C8.44821 19.0604 7.03562 19.9971 5.44946 21.0643C3.63968 22.2819 2.55578 22.9866 2.5394 22.9564C2.43319 22.7604 2.22969 21.3343 2.16875 20.3587C2.11383 19.48 2.11391 10.494 2.16883 9.61702C2.44719 5.1709 3.98621 3.12209 7.58107 2.41189C8.85547 2.16015 9.11816 2.14644 13.0146 2.12847C16.9593 2.11029 16.7732 2.12392 17.0992 1.82942C17.6607 1.32214 17.524 0.409393 16.8389 0.0912401C16.6535 0.00513987 16.6054 0.00384415 13.4325 0.000458653C11.6625 -0.00146397 10.1108 0.00284109 9.98435 0.00994645ZM23.6281 0.435557C23.3817 0.551249 23.17 0.752498 23.0815 0.955294C23.0119 1.11479 23.0029 1.28247 22.9912 2.6447L22.9783 4.15705L21.4655 4.17038C20.1183 4.1823 19.9345 4.19199 19.7861 4.25878C19.3792 4.44198 19.1625 4.81012 19.1735 5.29947C19.1823 5.68993 19.4036 6.01356 19.7856 6.19445C19.9932 6.29276 20.0043 6.29342 21.4888 6.2938L22.983 6.29422V7.72858C22.983 9.34844 23.0007 9.47667 23.2646 9.76882C23.4953 10.0241 23.702 10.1159 24.0488 10.1171C24.2945 10.1179 24.3765 10.0986 24.561 9.99661C24.6817 9.92982 24.8282 9.81271 24.8865 9.73635C25.1051 9.44971 25.1146 9.36829 25.1146 7.77272V6.29422L26.6088 6.2938C28.0905 6.29342 28.1048 6.29259 28.312 6.19499C28.5684 6.07429 28.718 5.9374 28.8269 5.72382C29.0992 5.19017 28.8716 4.52106 28.3329 4.27086C28.1549 4.18819 28.0634 4.1828 26.6297 4.17026L25.1146 4.15701V2.66183V1.16662L24.9905 0.919641C24.898 0.735404 24.8128 0.636347 24.6555 0.52985C24.4693 0.403751 24.4069 0.385235 24.1213 0.371442C23.8668 0.359112 23.7619 0.372779 23.6281 0.435557ZM10.0052 5.6529C8.87587 5.89373 7.88873 6.66416 7.37334 7.70697C6.88771 8.68964 6.84675 9.8627 7.26283 10.8742C8.00279 12.6734 9.9199 13.6145 11.8443 13.1234C12.2374 13.0231 12.9005 12.6857 13.2236 12.4217C13.8941 11.8736 14.3298 11.1881 14.568 10.3067C14.6798 9.893 14.6692 8.89219 14.5485 8.45387C14.3484 7.728 13.9806 7.11117 13.45 6.61208C12.9225 6.11579 12.3033 5.79275 11.6057 5.64972C11.2017 5.56688 10.4011 5.56847 10.0052 5.6529ZM11.5421 7.87182C12.4648 8.30361 12.8155 9.46835 12.2775 10.3139C11.8579 10.9731 11.0288 11.2961 10.3529 11.0636C10.0314 10.953 9.88023 10.8689 9.68245 10.6909C8.94847 10.0302 8.91583 8.91317 9.61019 8.21885C10.131 7.69803 10.8823 7.56307 11.5421 7.87182ZM25.3495 16.1528C25.6013 16.2222 25.8685 16.4208 26.9311 17.3284L27.8853 18.1434L27.8598 19.3555C27.8255 20.9894 27.7218 21.9123 27.4518 22.9865C27.107 24.3582 26.4759 25.4436 25.5952 26.1796C24.5669 27.0389 23.1523 27.5378 21.1021 27.7641C20.4708 27.8337 19.9547 27.8402 14.9999 27.8402C10.0451 27.8402 9.52898 27.8337 8.89765 27.7641C6.67208 27.5185 5.15016 26.933 4.13225 25.931C3.80774 25.6115 3.41511 25.1133 3.43007 25.0398C3.43843 24.9987 3.84678 24.7208 7.73141 22.1118C9.9721 20.6069 9.98794 20.599 10.6692 20.6437C10.8787 20.6574 11.1254 20.6919 11.2173 20.7203C11.4548 20.7936 11.7851 21.0106 12.1756 21.3497C12.7665 21.8628 13.2645 22.1327 13.9347 22.3029C14.2432 22.3813 14.4259 22.3987 14.9581 22.4004C15.6762 22.4027 15.9769 22.3521 16.5443 22.1333C17.0166 21.9511 17.3753 21.7009 18.2809 20.9215C21.6508 18.0216 23.4564 16.4845 23.6459 16.3541C24.0699 16.0625 24.7358 15.9838 25.3495 16.1528Z" fill="#107C02"/>
</svg>
