<svg width="32" height="45" viewBox="0 0 32 45" fill="none" xmlns="http://www.w3.org/2000/svg">
<path d="M9.44238 2.31152C9.43381 2.31205 9.42467 2.31445 9.41504 2.31445C9.42369 2.31445 9.43218 2.31097 9.44043 2.31055L9.44238 2.31152ZM9.44238 2.31152C9.46093 2.31038 9.47737 2.31084 9.49023 2.30859C9.50136 2.30664 9.51094 2.30297 9.51953 2.30078C9.49985 2.30453 9.47264 2.30889 9.44141 2.31055L9.44238 2.31152ZM10.124 24.4277C10.1708 24.8296 10.213 25.6143 10.291 27.1699L10.4531 30.3965L10.457 30.4717L10.4814 30.541L11.7129 33.958C12.0519 34.8989 12.3646 35.7513 12.5957 36.3662C12.711 36.6731 12.8071 36.9235 12.876 37.0967C12.91 37.1822 12.9393 37.2541 12.9619 37.3057C12.9723 37.3294 12.9856 37.3596 13 37.3867C13.0051 37.3963 13.023 37.4283 13.0488 37.4629C13.0572 37.4741 13.0972 37.5283 13.166 37.5762C13.2008 37.6004 13.2842 37.6526 13.4053 37.6641C13.5532 37.678 13.6991 37.6247 13.8047 37.5195C13.8677 37.4567 13.8986 37.3929 13.9043 37.3809C13.9154 37.3577 13.9222 37.3383 13.9258 37.3281C13.933 37.3072 13.9384 37.2892 13.9404 37.2812C13.9449 37.2636 13.948 37.2467 13.9502 37.2354C13.9551 37.2107 13.9603 37.1797 13.9658 37.1465C13.977 37.0784 13.9922 36.9818 14.0098 36.8623C14.0451 36.6224 14.0936 36.2792 14.1514 35.8594C14.2671 35.0192 14.4213 33.8661 14.5859 32.6035L15.1836 28.0156L15.2061 27.8506L15.124 27.7051L14.2539 26.1641C13.7892 25.3404 13.5574 24.8627 13.4766 24.5781C13.4723 24.563 13.4708 24.5486 13.4678 24.5361C13.4732 24.5356 13.4787 24.5357 13.4844 24.5352C13.6255 24.5226 13.8267 24.5115 14.084 24.502C14.5972 24.483 15.3127 24.4717 16.1738 24.4717C17.5775 24.4717 18.2517 24.4729 18.6016 24.501C18.6738 24.5068 18.7213 24.5136 18.751 24.5186C18.7641 24.539 18.7756 24.5622 18.7871 24.585C18.7456 24.6739 18.6856 24.7976 18.6074 24.9482C18.4467 25.2582 18.2226 25.6689 17.9756 26.1035L17.0693 27.6992L16.9863 27.8447L17.0078 28.0107L18.2354 37.4141L19.2031 37.5137L21.7217 30.3223L21.7461 30.252L21.749 30.1777L21.875 27.1123C21.9097 26.2709 21.9467 25.501 21.9775 24.9395C21.9865 24.7771 21.9962 24.6329 22.0039 24.5098C22.0531 24.5154 22.1063 24.5206 22.1621 24.5273C22.5531 24.5747 23.0793 24.6471 23.6299 24.7275C24.7443 24.8903 25.9102 25.0805 26.2666 25.1689C28.4833 25.7197 30.4222 27.5137 31.2246 29.7852L31.5 30.5645V41.7637L31.2344 42.3057C30.878 43.0315 30.0263 43.881 29.2988 44.2354L28.7549 44.5H3.4043L2.79883 44.2041C1.65195 43.6448 0.801929 42.5027 0.594727 41.2422C0.567466 41.0756 0.540539 40.4466 0.523438 39.5156C0.506768 38.608 0.499138 37.463 0.5 36.3086C0.501744 33.9771 0.539312 31.672 0.604492 31.1533C0.886926 28.9091 2.24629 26.8642 4.125 25.8232C5.14817 25.2565 5.83994 25.0535 8.22168 24.6895C8.78272 24.6037 9.31624 24.5275 9.72266 24.4746C9.87748 24.4545 10.0126 24.4384 10.123 24.4258L10.124 24.4277ZM16.5176 0.501953C17.2765 0.511525 17.9858 0.560245 18.332 0.632812C20.1772 1.01959 21.4876 1.673 22.4844 2.6543C23.6596 3.81124 24.1998 4.97934 24.291 6.52344C24.3516 7.55132 24.2337 8.30707 23.8975 9.13672C23.8381 9.28325 23.7879 9.40844 23.752 9.51074C23.7183 9.60663 23.6816 9.72425 23.6729 9.84473C23.6623 9.99124 23.6929 10.1416 23.7852 10.2793C23.8566 10.3859 23.9527 10.4605 23.9922 10.4922C23.9621 10.4681 23.9832 10.4719 24.0215 10.5693C24.0551 10.6548 24.0879 10.7759 24.1113 10.9268C24.1584 11.2294 24.1613 11.598 24.1074 11.9316C23.9746 12.7534 23.7837 13.0889 23.5537 13.2744C23.2046 13.5562 23.0158 13.9739 22.8457 14.543C22.5498 15.5324 21.7061 17.1801 21.0898 17.9756C19.8162 19.6198 18.07 20.4741 15.9902 20.4688C14.4455 20.4648 13.2388 20.0477 12.0342 19.1055C11.0113 18.3052 9.87285 16.4837 9.28027 14.5918C9.07593 13.9394 8.87972 13.4929 8.52832 13.1982C8.4097 13.0987 8.27434 12.897 8.16895 12.5664C8.06589 12.2431 8.00376 11.8333 8.00195 11.3672C8.00072 11.0358 8.01117 10.8585 8.0332 10.7441C8.05039 10.6551 8.07234 10.6108 8.11719 10.5508L8.33691 10.2578L8.49414 10.0479L8.41016 9.79883L8.17285 9.09766C7.57796 7.33591 7.86915 5.68213 8.9248 4.46191C9.12654 4.22882 9.32055 4.01367 9.41309 3.74805C9.5063 3.48024 9.4853 3.19318 9.46973 2.8916C9.45599 2.62514 9.4615 2.49075 9.47461 2.41406C9.47974 2.38412 9.48442 2.37215 9.48535 2.37012L9.48633 2.36816C9.48696 2.36724 9.48842 2.36364 9.49316 2.3584L9.49414 2.35938C9.50806 2.34407 9.52354 2.32834 9.53906 2.31445C9.54771 2.30673 9.55539 2.2996 9.5625 2.29395C9.57952 2.28959 9.5961 2.28552 9.61035 2.28125C9.64665 2.27036 9.69098 2.2555 9.73828 2.23926C9.83392 2.20641 9.96138 2.16001 10.1104 2.10449C10.4099 1.99288 10.8071 1.83986 11.2295 1.67188C12.7921 1.05061 13.8347 0.724393 14.6436 0.587891C15.0291 0.522859 15.761 0.492421 16.5176 0.501953Z" stroke="#107C02"/>
</svg>
