<svg width="39" height="45" viewBox="0 0 39 45" fill="none" xmlns="http://www.w3.org/2000/svg">
<path fill-rule="evenodd" clip-rule="evenodd" d="M21.8017 0.127837C21.3336 0.294687 20.7329 0.870364 20.4785 1.39576C20.2885 1.78838 20.286 2.05152 20.286 22.538C20.286 42.802 20.2903 43.291 20.4724 43.6478C20.5749 43.8486 20.8042 44.1564 20.982 44.3317C21.8103 45.1484 22.3852 45.1895 24.7568 44.6025C25.7411 44.3588 27.3546 43.9632 28.3422 43.7236C29.3298 43.4839 31.1206 43.0476 32.3218 42.754C33.5229 42.4605 35.0953 42.0846 35.816 41.9188C36.5367 41.753 37.2574 41.5658 37.4175 41.5027C37.8204 41.344 38.5131 40.6869 38.7342 40.2535C38.9127 39.9036 38.9184 39.3768 38.9255 22.5693C38.9321 6.87979 38.9181 5.2106 38.7771 4.87215C38.6027 4.45361 38.0347 3.82358 37.649 3.62111C37.5095 3.54773 36.483 3.26489 35.3681 2.99244C29.2658 1.50146 28.0867 1.21464 26.9348 0.941608C26.2408 0.777087 25.094 0.494539 24.3864 0.313711C23.002 -0.0400808 22.3952 -0.0836617 21.8017 0.127837ZM9.78088 3.31478C9.14289 3.61063 8.36221 4.39324 8.08889 5.01075L7.86205 5.52305V10.8165C7.86205 14.2799 7.8968 16.175 7.96251 16.2978C8.05501 16.4706 8.17877 16.4856 9.51551 16.4856H10.968V11.7732C10.968 6.69381 10.9712 6.65955 11.4786 6.36972C11.6394 6.2778 12.6054 6.23286 15.1903 6.19695L18.6845 6.14842V4.64395V3.13949L14.4623 3.12066C10.2999 3.10202 10.2336 3.10484 9.78088 3.31478ZM13.977 18.1162V19.3004H6.98849H0V23.7167V28.133H6.98548H13.971L13.9982 29.3L14.0255 30.467L16.3823 27.1404C17.6785 25.3108 18.7393 23.7701 18.7398 23.7167C18.7405 23.6362 14.3194 17.3143 14.0596 17.0243C14.0137 16.9729 13.977 17.4573 13.977 18.1162ZM25.6266 22.0197C25.9638 22.2597 26.3674 23.0709 26.4533 23.6809C26.5927 24.6704 26.0785 25.9032 25.3903 26.2297C24.9339 26.4464 24.5813 26.3712 24.1671 25.9686C23.2029 25.0319 23.1841 23.1136 24.13 22.1762C24.6331 21.6778 25.0807 21.6309 25.6266 22.0197ZM7.86205 35.0217V39.4838L8.08976 39.9961C8.37755 40.6438 9.11813 41.3817 9.78408 41.6842L10.2988 41.9179L14.4916 41.8927L18.6845 41.8674V40.3629V38.8584L15.1903 38.8099C12.6054 38.774 11.6394 38.729 11.4786 38.6371C10.9829 38.3539 10.968 38.2266 10.968 34.2528V30.5596H9.41505H7.86205V35.0217Z" fill="#107C02"/>
</svg>
