<svg width="45" height="45" viewBox="0 0 45 45" fill="none" xmlns="http://www.w3.org/2000/svg">
<path fill-rule="evenodd" clip-rule="evenodd" d="M11.2775 0.0500133C5.32219 0.615139 1.11234 4.66493 0.187893 10.718C0.00849521 11.8929 -0.000358885 12.447 1.00305e-05 22.4706C0.000378946 32.4713 0.0107613 33.1257 0.187419 34.2759C0.911073 38.9866 3.65628 42.5737 7.7232 44.1227C9.21968 44.6927 11.2393 45.0462 12.6832 44.9909C13.3687 44.9647 13.6535 44.8447 14.0332 44.4225C14.7775 43.5946 14.5048 42.2291 13.5003 41.7538C13.2332 41.6275 13.1147 41.6087 12.344 41.5699C11.8718 41.5461 11.3971 41.5121 11.2892 41.4944C8.99206 41.1158 7.52499 40.4123 6.13544 39.0228C4.72097 37.6082 3.9132 35.9054 3.54629 33.5644C3.45706 32.9955 3.45127 32.3174 3.45127 22.497C3.45127 12.6766 3.45706 11.9984 3.54629 11.4295C3.89428 9.20923 4.69414 7.46015 5.97333 6.12178C7.43529 4.59226 9.25357 3.73121 11.5674 3.47265C12.2384 3.39771 32.7671 3.39966 33.454 3.47476C34.8833 3.63102 36.2021 4.05591 37.2861 4.70947C39.2529 5.89527 40.6455 7.859 41.2294 10.2701C41.5767 11.7042 41.555 10.8892 41.555 22.497C41.555 32.4119 41.5495 33.0441 41.4591 33.5908C41.0679 35.9588 40.2788 37.6147 38.8708 39.0228C37.7515 40.142 36.5255 40.8396 34.973 41.2405C33.7614 41.5534 34.182 41.5367 26.6666 41.5704L19.7362 41.6015L19.4386 41.7411C19.0753 41.9114 18.7731 42.2045 18.602 42.5524C18.4951 42.7699 18.4733 42.8932 18.4724 43.288C18.4715 43.7012 18.4903 43.8007 18.6179 44.0607C18.7866 44.4042 19.0903 44.7002 19.44 44.8619L19.6835 44.9745L26.245 44.991C33.0827 45.0082 33.6814 44.9938 34.8618 44.784C38.7748 44.0886 41.8252 41.8486 43.5313 38.4175C44.2153 37.0419 44.6045 35.7462 44.8872 33.9036C44.9672 33.3823 44.9774 32.3407 44.9947 22.9977C45.0082 15.6459 44.9965 12.4477 44.9541 11.9038C44.7379 9.12702 43.8706 6.69534 42.3914 4.71827C40.3651 2.00996 37.3299 0.388045 33.6496 0.0469566C32.9532 -0.0175509 11.9597 -0.014705 11.2775 0.0500133ZM14.7559 16.7388C14.4047 16.8625 13.9077 17.382 13.7918 17.7467C13.5916 18.3761 13.7189 19.0138 14.1355 19.4698C14.4786 19.8451 14.7472 19.9654 15.4318 20.0502C15.7412 20.0885 16.1001 20.1573 16.2293 20.2032C17.2866 20.5783 17.9989 21.7675 17.8163 22.8527C17.6634 23.7608 17.0268 24.5114 16.1482 24.8194C15.8933 24.9087 15.7399 24.9253 15.3093 24.9104C14.8456 24.8944 14.7383 24.8715 14.4163 24.7203C13.9394 24.4962 13.655 24.2581 13.3895 23.8605C12.931 23.1738 12.8461 22.3693 13.1455 21.5483C13.5039 20.5657 13.1883 19.6608 12.3423 19.2453C12.083 19.118 11.9802 19.098 11.5938 19.0998C11.2147 19.1015 11.0994 19.1243 10.8446 19.2476C10.2906 19.5158 9.94829 20.0653 9.68393 21.1105C9.58333 21.5085 9.56699 21.7101 9.56952 22.5233C9.57215 23.3743 9.58659 23.5247 9.70986 23.9835C10.3014 26.1849 12.0952 27.8542 14.3178 28.2714C14.9564 28.3913 16.2434 28.3537 16.8211 28.1984C17.6869 27.9656 18.37 27.6223 19.0424 27.0821C19.8389 26.4422 20.5456 25.4736 20.8549 24.5977L21.0011 24.1837L23.3572 24.1836L25.7133 24.1835L25.7288 25.6723C25.7437 27.1056 25.7488 27.1704 25.8662 27.4086C26.1506 27.9859 26.6576 28.3088 27.3254 28.3378C27.8647 28.3611 28.2487 28.2282 28.5846 27.9017C29.0707 27.4293 29.1436 27.1046 29.1436 25.4123V24.1835H30.5891H32.0347L32.0516 25.6196C32.0683 27.0395 32.0701 27.059 32.2056 27.348C32.5077 27.9921 32.96 28.3004 33.656 28.337C34.2117 28.3661 34.5297 28.2639 34.8895 27.9404C35.0369 27.8079 35.2214 27.5784 35.2995 27.4303L35.4415 27.1611V24.5787V21.9963L35.2995 21.7271C35.2214 21.5791 35.0374 21.35 34.8908 21.2181C34.4035 20.7801 34.9504 20.8105 27.5663 20.8104L21.0011 20.8103L20.8538 20.3933C20.5914 19.6502 20.0275 18.807 19.3922 18.2076C18.5854 17.4466 17.5801 16.9351 16.4819 16.7267C15.9342 16.6228 15.0681 16.6289 14.7559 16.7388Z" fill="#107C02"/>
</svg>
