<svg width="26" height="45" viewBox="0 0 26 45" fill="none" xmlns="http://www.w3.org/2000/svg">
<path fill-rule="evenodd" clip-rule="evenodd" d="M4.84963 0.0447025C2.70071 0.259329 0.87261 1.83178 0.183084 4.05866L0.0258734 4.56622L0.00702921 22.2534C-0.0101137 38.264 -0.00154198 39.9921 0.0972339 40.4847C0.223901 41.1161 0.506011 41.8287 0.863155 42.4193C1.14479 42.8852 1.88942 43.6793 2.32438 43.9778C2.79711 44.3022 3.58038 44.6689 4.13208 44.824C4.64732 44.969 4.71412 44.9704 12.4067 44.9927C20.43 45.0159 21.1506 44.9969 21.9506 44.741C23.7465 44.1666 25.1151 42.7394 25.6545 40.8782L25.8081 40.3486V22.4914V4.63424L25.6545 4.10465C25.0872 2.1475 23.6437 0.704433 21.7093 0.160757C21.1828 0.0127297 21.1735 0.0125256 13.291 0.00116501C8.95087 -0.00509352 5.15222 0.0144983 4.84963 0.0447025ZM22.4407 20.3146V34.4643H12.9169H3.39303V20.3146V6.16486H12.9169H22.4407V20.3146ZM13.4008 36.7782C14.3977 36.9658 15.2129 37.7212 15.473 38.698C15.8095 39.962 15.1718 41.2839 13.9659 41.8219C13.516 42.0227 12.6658 42.0706 12.1606 41.9238C11.368 41.6933 10.6467 40.9829 10.3987 40.1884C10.0806 39.169 10.349 38.1776 11.1447 37.4333C11.7765 36.8423 12.5493 36.6179 13.4008 36.7782Z" fill="#107C02"/>
</svg>
