<svg width="15" height="16" viewBox="0 0 15 16" fill="none" xmlns="http://www.w3.org/2000/svg">
<path fill-rule="evenodd" clip-rule="evenodd" d="M6.8881 0.0228374C5.64458 0.118282 4.42222 0.538487 3.36498 1.23401C3.14612 1.37796 3.08093 1.43789 3.03099 1.54103C2.95467 1.69875 2.97286 1.86732 3.08161 2.00991C3.24765 2.22759 3.48316 2.25474 3.75613 2.08761C4.24675 1.78723 4.39592 1.70331 4.67321 1.57179C6.7478 0.587782 9.11086 0.745241 11.0957 1.99978C11.3125 2.13682 11.3797 2.16508 11.4883 2.16508C11.7705 2.16508 11.9846 1.93714 11.9584 1.66453C11.939 1.46177 11.8813 1.3927 11.5553 1.18184C10.1995 0.304825 8.55024 -0.104716 6.8881 0.0228374ZM1.51918 3.04547C1.42444 3.09368 1.35478 3.17405 1.18919 3.42628C0.581823 4.35138 0.187616 5.44393 0.0331239 6.63034C-0.0169929 7.01521 -0.00867954 8.09107 0.0475182 8.49677C0.112411 8.96503 0.230036 9.46664 0.381385 9.92054C0.626534 10.6556 1.23384 11.7769 1.4747 11.9391C1.68947 12.0837 2.00328 12.0034 2.13015 11.7713C2.22945 11.5896 2.1934 11.4157 1.99273 11.1084C0.746215 9.1994 0.576858 6.78631 1.54412 4.71642C1.67434 4.43775 1.7462 4.30888 2.0316 3.84205C2.15689 3.63715 2.18274 3.57128 2.18274 3.45716C2.18274 3.11486 1.82231 2.89124 1.51918 3.04547ZM13.131 3.03019C12.9068 3.11016 12.8038 3.26765 12.8232 3.50113C12.8333 3.62328 12.8669 3.70028 12.9972 3.90025C14.4334 6.10421 14.4376 8.90666 13.0081 11.1103C12.8209 11.3988 12.7765 11.5728 12.8466 11.7422C12.928 11.9386 13.189 12.0644 13.3983 12.008C13.5404 11.9697 13.6477 11.8548 13.8692 11.5035C14.4537 10.5763 14.8207 9.53535 14.9658 8.39295C15.0166 7.99293 15.0094 6.92414 14.9532 6.52653C14.8036 5.46794 14.4165 4.39007 13.8774 3.5311C13.6548 3.17634 13.5436 3.05514 13.4059 3.01689C13.2763 2.98087 13.2681 2.98125 13.131 3.03019ZM4.56578 3.31597C4.27392 3.39779 4.22833 3.49602 4.20973 4.08326L4.19505 4.5473L3.93729 4.63384C3.47872 4.78781 3.15411 4.98674 2.7881 5.33815C1.33639 6.73184 1.63104 9.1143 3.38389 10.1556C4.24061 10.6646 5.34653 10.7012 6.25142 10.2505C6.87012 9.94243 7.39044 9.41273 7.6736 8.80278C7.83274 8.45999 7.91012 8.12462 7.95636 7.57713C7.98488 7.2393 8.01975 7.00828 8.06059 6.88663C8.38796 5.91094 9.30939 5.31503 10.3149 5.42875C10.7793 5.48127 11.1619 5.65909 11.5032 5.98106C11.9548 6.40708 12.1735 6.91089 12.1735 7.52531C12.1735 8.32474 11.7485 9.01327 11.0214 9.39182L10.7974 9.50847L10.7844 9.16371C10.7708 8.8002 10.7409 8.70041 10.6093 8.57917C10.506 8.48402 10.3113 8.44036 10.1813 8.48325C10.0678 8.52071 8.23596 9.65215 8.1214 9.75556C8.02022 9.84686 7.96996 9.96058 7.96996 10.0982C7.96996 10.2787 8.04361 10.4047 8.21522 10.5179C8.48578 10.6962 10.009 11.6433 10.1056 11.6933C10.2898 11.7885 10.5312 11.7304 10.6758 11.556C10.7553 11.4601 10.7913 11.2307 10.7758 10.9194C10.7553 10.5079 10.7617 10.491 10.961 10.4336C11.191 10.3674 11.5679 10.1878 11.7924 10.0375C12.0712 9.85095 12.5123 9.38768 12.6818 9.10346C12.8667 8.79344 13.0093 8.41146 13.0695 8.06528C13.1328 7.70136 13.1131 7.09191 13.0277 6.77209C12.6906 5.50924 11.6196 4.59401 10.358 4.49072C9.40504 4.41272 8.53376 4.73493 7.8949 5.40157C7.3366 5.98417 7.09018 6.56369 7.02902 7.43797C6.9935 7.94586 6.94976 8.12583 6.77556 8.48043C6.53793 8.96418 6.08532 9.35078 5.54638 9.5303C5.33933 9.59928 5.26415 9.60871 4.91478 9.60971C4.46035 9.61097 4.30283 9.57507 3.94249 9.38815C3.53084 9.17461 3.22347 8.85795 3.01924 8.43701C2.51299 7.39358 2.92838 6.16681 3.96467 5.64481C4.07522 5.58914 4.17557 5.54355 4.1877 5.54349C4.19983 5.54343 4.20973 5.69693 4.20973 5.88459C4.20973 6.17545 4.21869 6.24151 4.27048 6.33258C4.35997 6.48995 4.46129 6.55229 4.64906 6.56545L4.81196 6.57688L5.81077 5.95535C6.36011 5.6135 6.84512 5.29573 6.88854 5.24923C7.05825 5.06744 7.0512 4.77776 6.87297 4.61093C6.78775 4.53114 5.10261 3.46562 4.90009 3.36347C4.77027 3.29799 4.67718 3.28477 4.56578 3.31597ZM5.37819 4.75493C5.68571 4.94518 5.68274 4.92914 5.43821 5.0794C5.31997 5.15205 5.20672 5.22085 5.18651 5.2323C5.15813 5.24837 5.14979 5.18257 5.14979 4.94291C5.14979 4.77232 5.15672 4.63273 5.16521 4.63273C5.17367 4.63273 5.2695 4.68772 5.37819 4.75493ZM9.84073 10.4097C9.83444 10.416 9.71561 10.3515 9.57669 10.2664C9.43774 10.1813 9.33404 10.1017 9.34623 10.0895C9.35845 10.0773 9.47349 10.0024 9.6019 9.92318L9.83538 9.77906L9.84375 10.0887C9.84836 10.259 9.84702 10.4034 9.84073 10.4097ZM3.22235 12.8831C2.95123 13.0535 2.9069 13.4019 3.12958 13.6118C3.31935 13.7907 3.95604 14.1618 4.44475 14.3782C6.22028 15.1646 8.21851 15.2348 10.0704 14.5757C10.6469 14.3705 11.6186 13.8503 11.8703 13.6121C12.0962 13.3984 12.0391 13.0175 11.7595 12.8729C11.5932 12.7869 11.4399 12.8145 11.1694 12.9794C10.7386 13.2418 10.518 13.3644 10.2613 13.4837C8.44216 14.3293 6.28855 14.2826 4.49378 13.3588C4.31332 13.2659 4.04719 13.1126 3.90236 13.0181C3.67572 12.8703 3.61644 12.8449 3.4764 12.836C3.3527 12.8281 3.29186 12.8394 3.22235 12.8831Z" fill="white" fill-opacity="0.95"/>
</svg>
