<svg width="30" height="31" viewBox="0 0 30 31" fill="none" xmlns="http://www.w3.org/2000/svg">
<path fill-rule="evenodd" clip-rule="evenodd" d="M2.69554 0.0312128C1.62362 0.210656 0.557007 1.12685 0.146252 2.22095L0.0193398 2.55892L0.00488286 13.2321C-0.00780839 22.5805 0.000689218 23.9454 0.0733052 24.229C0.360403 25.3497 1.29663 26.2743 2.50241 26.6281C2.80965 26.7183 3.35973 26.7266 10.1448 26.7436L17.456 26.7621L17.7595 27.236C18.1303 27.815 18.9576 28.6638 19.5403 29.0629C20.5873 29.7803 21.9772 30.2314 23.1409 30.2314C24.2897 30.2314 25.2642 30.0331 26.1124 29.6268C28.1989 28.6275 29.5905 26.7686 29.9354 24.5203C30.0808 23.5724 29.9759 22.3531 29.6695 21.4303C29.5153 20.9657 29.1175 20.1908 28.79 19.7172C28.444 19.2167 27.5709 18.3661 27.048 18.0201C26.1985 17.458 25.0847 17.0303 24.1465 16.9059L23.8844 16.8712L23.8835 9.96339C23.8824 2.24904 23.9017 2.6498 23.4912 1.8172C23.0738 0.970531 22.2291 0.287411 21.3405 0.0778945C21.0327 0.00538886 19.8233 -0.00443315 11.9105 0.00141586C6.91814 0.00511288 2.77141 0.0185215 2.69554 0.0312128ZM21.3186 1.58699C21.7165 1.7783 22.1224 2.18216 22.2954 2.55892L22.4222 2.83482L22.4372 9.87984L22.4522 16.9248L22.1337 16.986C21.1272 17.1792 20.4651 17.4467 19.5958 18.0112C18.1424 18.955 16.9635 20.8122 16.7078 22.5609C16.6242 23.1326 16.6729 24.4962 16.7924 24.9342C16.838 25.1011 16.8756 25.2568 16.876 25.2802C16.8764 25.3037 13.7293 25.3161 9.88265 25.3078L2.88867 25.2928L2.57552 25.146C2.17602 24.9588 1.82122 24.6314 1.61568 24.2603L1.454 23.9685L1.43966 13.4078L1.42531 2.84718L1.56039 2.55208C1.73167 2.17797 2.16935 1.73802 2.54363 1.56376L2.83349 1.42885L11.9105 1.42835L20.9875 1.42786L21.3186 1.58699ZM7.49261 5.84061C7.38446 5.89777 6.94231 6.3312 6.51003 6.80376C6.07781 7.27637 5.7069 7.66296 5.68587 7.6629C5.66485 7.66285 5.57822 7.55299 5.49341 7.41874C5.09959 6.79532 4.7295 6.57929 4.33652 6.74351C4.09185 6.8457 3.95854 7.04158 3.92598 7.34651C3.89883 7.60121 4.03733 7.87065 4.5803 8.61949C4.93521 9.10893 5.16857 9.27629 5.53888 9.30703C5.92828 9.33931 6.19187 9.18756 6.74322 8.61364C8.28344 7.01052 8.478 6.79206 8.51481 6.62432C8.65833 5.97094 8.08193 5.52901 7.49261 5.84061ZM10.0493 7.8552C9.54081 8.0762 9.51383 8.92287 10.0087 9.12963C10.2821 9.24385 19.2704 9.24683 19.5433 9.13277C20.0506 8.92088 20.0747 8.22502 19.5861 7.89863L19.3986 7.77337L14.813 7.77553C11.0008 7.77735 10.1974 7.79075 10.0493 7.8552ZM7.53538 10.9127C7.34672 11.0089 6.3307 12.0205 5.87486 12.5662L5.68096 12.7982L5.40071 12.3829C5.24659 12.1545 5.06003 11.928 4.98614 11.8796C4.80389 11.7602 4.3944 11.7603 4.21192 11.8798C4.02365 12.0032 3.89012 12.3227 3.9283 12.5583C3.97151 12.8243 4.3891 13.529 4.7215 13.8966C5.1497 14.3702 5.45572 14.4782 5.9674 14.3361C6.12825 14.2915 6.32651 14.1221 6.82268 13.6057C7.17792 13.2359 7.68326 12.721 7.94574 12.4616C8.51034 11.9035 8.61855 11.6683 8.4859 11.2876C8.39639 11.0308 8.11785 10.8082 7.88593 10.8082C7.80575 10.8082 7.648 10.8553 7.53538 10.9127ZM10.1533 12.9195C9.90169 13.0009 9.65973 13.2561 9.61668 13.4855C9.56675 13.7517 9.73306 14.0527 10.0104 14.1982C10.2237 14.3101 10.3054 14.3124 14.6419 14.3292C17.7599 14.3413 19.1407 14.3281 19.344 14.2843C20.0307 14.1364 20.1766 13.3384 19.5804 12.9903C19.3905 12.8793 19.3118 12.8773 14.8626 12.8686C11.7467 12.8626 10.2804 12.8785 10.1533 12.9195ZM7.50928 16.2848C7.38551 16.3531 6.93072 16.7814 6.49861 17.2366C6.0665 17.6919 5.69614 18.0712 5.67561 18.0797C5.65508 18.0881 5.52276 17.9213 5.38156 17.709C5.24041 17.4966 5.06345 17.2826 4.98835 17.2334C4.80416 17.1128 4.39523 17.1121 4.21192 17.2322C4.02365 17.3556 3.89012 17.6751 3.9283 17.9107C3.97151 18.1767 4.3891 18.8814 4.7215 19.249C5.14661 19.7192 5.4566 19.8304 5.95581 19.6917C6.17868 19.6298 6.23971 19.5743 7.47291 18.311C8.495 17.264 8.62721 17.0457 8.48551 16.6389C8.39595 16.382 8.11708 16.1606 7.8829 16.1606C7.80112 16.1606 7.63299 16.2165 7.50928 16.2848ZM10.1172 18.2842C9.99577 18.3277 9.8406 18.4278 9.77229 18.5066C9.52062 18.7971 9.66773 19.4529 10.0141 19.5845C10.1062 19.6196 11.2374 19.6342 13.1087 19.6245L16.058 19.6093L16.2161 19.4324C16.5272 19.0841 16.4731 18.6298 16.0864 18.3447C15.934 18.2323 15.8703 18.2296 13.1343 18.2175C10.8226 18.2072 10.2996 18.2188 10.1172 18.2842ZM24.6845 18.4516C25.1228 18.572 25.8275 18.9045 26.2637 19.1967C26.7794 19.542 27.5613 20.3639 27.8764 20.8918C28.1759 21.3937 28.43 22.0786 28.5163 22.6166C28.6379 23.3746 28.5427 24.5183 28.296 25.2634C27.7608 26.8802 26.4111 28.1412 24.6787 28.6429C24.3008 28.7524 24.1225 28.7687 23.3326 28.7664C22.2913 28.7633 21.9299 28.6937 21.2016 28.3562C19.9752 27.7876 18.9244 26.7127 18.4269 25.5176C18.1424 24.8342 18.0725 24.3708 18.1059 23.3892C18.1396 22.4013 18.209 22.0899 18.5576 21.3629C18.8775 20.6958 19.1543 20.2986 19.616 19.8437C20.3635 19.1075 21.2387 18.6198 22.229 18.3877C22.6546 18.288 24.2392 18.3292 24.6845 18.4516ZM25.951 20.8726C25.8282 20.9478 24.9747 21.7993 24.0545 22.7648C23.1342 23.7304 22.3612 24.528 22.3368 24.5374C22.3123 24.5467 22.0988 24.3233 21.8623 24.0407C21.6259 23.7582 21.256 23.3471 21.0404 23.127C20.668 22.747 20.6359 22.727 20.3985 22.727C20.0605 22.727 19.7989 22.9061 19.693 23.2101C19.6188 23.4231 19.621 23.4586 19.7206 23.6604C19.8233 23.8684 20.9972 25.2433 21.5927 25.853C21.824 26.0898 21.914 26.1438 22.1318 26.1764C22.2755 26.198 22.4499 26.2013 22.5191 26.184C22.778 26.119 23.1842 25.7884 23.7057 25.2182C24.0012 24.8951 24.5659 24.2952 24.9604 23.8851C27.0685 21.6942 26.9072 21.8794 26.9489 21.6018C27.0434 20.971 26.4722 20.5536 25.951 20.8726Z" fill="#107C02"/>
</svg>
