<svg width="25" height="25" viewBox="0 0 25 25" fill="none" xmlns="http://www.w3.org/2000/svg">
<path fill-rule="evenodd" clip-rule="evenodd" d="M2.66815 0.0422519C1.46385 0.242519 0.483645 1.11878 0.119462 2.32076C0.0248659 2.63308 0.0235978 2.66876 0.00859253 5.48539C-0.00074875 7.23876 0.00977616 8.46796 0.0359825 8.68218C0.19787 10.0056 1.0765 11.0272 2.36788 11.3935C2.62031 11.4651 2.86597 11.4707 5.7468 11.4707C8.63504 11.4707 8.87284 11.4652 9.12826 11.393C10.3603 11.0444 11.2173 10.1086 11.4332 8.87623C11.5242 8.35697 11.5243 3.13092 11.4334 2.61047C11.1998 1.27424 10.1587 0.261751 8.79012 0.0400116C8.45256 -0.0146835 2.99852 -0.0126969 2.66815 0.0422519ZM18.9646 0.0529457C18.6953 0.128099 18.4739 0.314502 18.3322 0.585441L18.2159 0.807603V2.74712V4.68665H16.3427C14.1936 4.68665 14.1506 4.69206 13.8429 4.99968C13.5183 5.3243 13.4376 5.83237 13.6459 6.24064C13.754 6.45261 14.0411 6.7025 14.24 6.7577C14.3292 6.78252 15.1709 6.79968 16.3033 6.7998L18.2159 6.80006V8.73958V10.6791L18.334 10.9051C18.6698 11.5479 19.513 11.6741 20.0284 11.1588C20.3251 10.8621 20.3294 10.8272 20.3294 8.69461V6.80006L22.2631 6.79913C24.1182 6.79824 24.2046 6.79469 24.3871 6.71197C24.7779 6.53478 24.9902 6.19524 24.9926 5.74335C24.9948 5.32938 24.7969 5.00581 24.4171 4.80284C24.241 4.70875 24.2191 4.70765 22.2843 4.69561L20.3294 4.68343V2.81179C20.3294 1.24166 20.3187 0.90444 20.2636 0.718755C20.11 0.201561 19.5186 -0.101587 18.9646 0.0529457ZM8.76898 2.2208C8.96828 2.32854 9.17218 2.53578 9.28204 2.74231C9.35656 2.88238 9.36074 3.0419 9.36074 5.74335C9.36074 8.46906 9.35715 8.60305 9.28022 8.7444C9.13143 9.01779 9.02378 9.1328 8.81125 9.24536L8.59991 9.35729H5.7468C3.04536 9.35729 2.88583 9.3531 2.74576 9.27858C2.53924 9.16873 2.33199 8.96483 2.22425 8.76553C2.13316 8.59701 2.13287 8.58703 2.13287 5.76449C2.13287 2.63224 2.11854 2.80326 2.40858 2.47289C2.55547 2.30563 2.72839 2.19882 2.93597 2.14708C3.00571 2.12971 4.30863 2.1186 5.83134 2.12244C8.58237 2.12937 8.60097 2.13001 8.76898 2.2208ZM2.53919 13.586C2.11528 13.6779 1.9012 13.7605 1.54475 13.9691C0.73734 14.4417 0.161308 15.3255 0.042365 16.274C-0.0128796 16.7146 -0.0146547 21.8334 0.0403363 22.2564C0.174031 23.2854 0.813169 24.1942 1.72367 24.65C2.42786 25.0025 2.35803 24.9965 5.7468 24.9965C8.09142 24.9965 8.78078 24.9844 8.98033 24.9396C10.2614 24.652 11.2115 23.6749 11.4304 22.4201C11.5242 21.8823 11.5265 16.6688 11.4332 16.1363C11.2426 15.0482 10.5264 14.1555 9.52047 13.752C8.95788 13.5264 8.85864 13.5205 5.71688 13.524C3.40692 13.5268 2.75366 13.5395 2.53919 13.586ZM16.2293 13.5492C14.9316 13.777 13.9782 14.6325 13.623 15.8877C13.5507 16.1432 13.5453 16.381 13.5453 19.2692C13.5453 22.7531 13.5315 22.5793 13.8622 23.2635C14.2431 24.0517 14.9759 24.6466 15.8807 24.9024C16.2037 24.9938 16.2495 24.995 19.2304 24.9958C22.6697 24.9966 22.5897 25.0035 23.3009 24.6474C23.6185 24.4885 23.7588 24.3837 24.0742 24.0697C24.3943 23.7511 24.4921 23.6205 24.6523 23.2979C25.0064 22.5847 25 22.6587 25 19.2692C25 16.0709 25.0001 16.0721 24.7782 15.5073C24.4282 14.6166 23.6733 13.9258 22.7386 13.6408C22.4219 13.5443 22.4186 13.5442 19.3783 13.5374C17.7045 13.5337 16.2875 13.539 16.2293 13.5492ZM8.59175 15.6792C8.85948 15.7473 9.08295 15.924 9.2295 16.1836L9.36074 16.4161V19.2692C9.36074 22.119 9.36065 22.1225 9.26868 22.2942C9.15037 22.5153 8.88831 22.7514 8.67942 22.8252C8.54687 22.872 7.98373 22.8831 5.7468 22.8831C3.50988 22.8831 2.94674 22.872 2.81419 22.8252C2.6053 22.7514 2.34324 22.5153 2.22493 22.2942C2.13295 22.1225 2.13287 22.119 2.13287 19.2692V16.4161L2.22687 16.247C2.39662 15.9417 2.60471 15.7613 2.87763 15.6829C3.08196 15.6241 8.36186 15.6207 8.59175 15.6792ZM22.1296 15.6818C22.3862 15.7464 22.709 16.0403 22.8096 16.301C22.8813 16.4868 22.8866 16.692 22.8866 19.2692C22.8866 22.3874 22.8962 22.2871 22.568 22.5836C22.2173 22.9005 22.4067 22.8831 19.2938 22.8831C17.039 22.8831 16.4726 22.872 16.34 22.8252C16.1311 22.7514 15.8691 22.5153 15.7508 22.2942C15.6593 22.1234 15.6586 22.1054 15.6467 19.3539C15.6335 16.3323 15.6322 16.3512 15.8765 16.031C15.9952 15.8753 16.2288 15.722 16.4195 15.6744C16.6352 15.6206 21.9138 15.6274 22.1296 15.6818Z" fill="#107C02"/>
</svg>
