<svg width="25" height="25" viewBox="0 0 25 25" fill="none" xmlns="http://www.w3.org/2000/svg">
<path fill-rule="evenodd" clip-rule="evenodd" d="M11.6387 0.00477984C10.1427 0.0909801 9.06756 0.309856 7.75577 0.795178C7.39391 0.929072 7.11527 1.05559 6.57541 1.33107C5.37551 1.94338 4.37665 2.68055 3.41138 3.6661C1.50104 5.61661 0.302329 8.17927 0.0262885 10.9029C-0.0254379 11.4131 0.00400393 13.1591 0.072514 13.6442C0.609249 17.4458 2.65449 20.5681 5.88628 22.5196C8.18243 23.9062 10.9922 24.4866 13.6702 24.1276C14.0011 24.0832 14.1401 24.0601 14.5155 23.987L14.6887 23.9532L14.5824 23.8355C14.4177 23.6532 14.2199 23.3479 14.1039 23.0969C13.9517 22.7675 13.8802 22.4272 13.8552 21.9141L13.8336 21.4686L13.6738 21.495C12.9148 21.6208 11.8657 21.6499 11.0761 21.5671C8.7837 21.3267 6.69168 20.2626 5.08522 18.5199C3.77318 17.0966 2.95897 15.3548 2.6673 13.3473C2.59957 12.8812 2.57273 11.7572 2.61801 11.2845C2.82158 9.15901 3.69455 7.18606 5.09097 5.69549C5.94866 4.77998 6.83411 4.11276 7.8881 3.58765C9.2017 2.93321 10.5947 2.60873 12.0872 2.60948C13.3555 2.61013 14.3327 2.78928 15.5187 3.2386C16.4739 3.60047 17.3938 4.14905 18.2674 4.87778C18.8528 5.36601 19.5344 6.13225 19.9907 6.8151C21.0088 8.33823 21.516 9.93681 21.6104 11.9194C21.627 12.2673 21.6408 12.3632 21.6724 12.3511C21.6947 12.3425 21.8092 12.3491 21.9266 12.3656C22.3481 12.4251 22.7455 12.6905 22.9242 13.0318L23.0113 13.1981L23.3102 13.2345C23.4747 13.2545 23.7267 13.3066 23.8702 13.3502C24.0138 13.3938 24.1364 13.4244 24.1426 13.4182C24.1842 13.3765 24.2226 12.4488 24.2047 11.9153C24.1696 10.8675 24.0652 10.0774 23.8432 9.17776C23.0776 6.07633 21.1035 3.40544 18.3353 1.72585C16.8293 0.812118 14.9522 0.196027 13.2326 0.0510679C12.801 0.0146876 11.9138 -0.0110975 11.6387 0.00477984ZM11.8604 4.70563C11.4778 4.77361 11.0809 5.08353 10.9103 5.44761L10.826 5.62742L10.8176 8.46262L10.8091 11.2978L8.95792 11.3068L7.10674 11.3158L6.92393 11.4068C6.39041 11.6726 6.09581 12.2127 6.17891 12.7726C6.25918 13.3134 6.61313 13.7121 7.13665 13.8515C7.36765 13.913 12.1904 13.913 12.4214 13.8515C12.682 13.7821 12.8168 13.7035 13.0154 13.505C13.2143 13.3062 13.3221 13.1157 13.3745 12.87C13.395 12.7741 13.4031 11.4881 13.3975 9.20607L13.3889 5.68993L13.3188 5.51803C13.176 5.16795 12.8626 4.86481 12.5294 4.75457C12.344 4.69322 12.0509 4.67178 11.8604 4.70563ZM17.6314 13.2084C17.3566 13.348 17.3118 13.4983 17.3116 14.2813C17.3114 14.8234 17.3061 14.8799 17.2467 14.9761C17.1633 15.111 17.1351 15.3834 17.1858 15.5643C17.2354 15.7416 17.4111 15.9486 17.5753 16.0231C17.7441 16.0998 18.0656 16.1002 18.2337 16.0238C18.3786 15.9579 18.5489 15.7762 18.616 15.6156C18.6799 15.4627 18.6544 15.1299 18.5665 14.9692C18.5057 14.858 18.4993 14.7926 18.4917 14.2068C18.4845 13.65 18.4756 13.5504 18.4238 13.4461C18.2924 13.1813 17.9101 13.0667 17.6314 13.2084ZM19.5461 13.2065C19.4026 13.278 19.2869 13.4317 19.247 13.6036C19.2318 13.6689 19.2191 13.9777 19.2186 14.2897C19.2179 14.8278 19.2139 14.8656 19.1401 15.0242C19.0387 15.2419 19.0374 15.4513 19.1361 15.6602C19.2727 15.949 19.4857 16.0821 19.8117 16.0821C20.1141 16.0821 20.3423 15.9493 20.4763 15.6953C20.5722 15.5137 20.5715 15.1803 20.475 14.9972C20.4107 14.8754 20.4055 14.8234 20.4048 14.294C20.4044 13.9796 20.3917 13.6689 20.3765 13.6036C20.2892 13.2277 19.8882 13.036 19.5461 13.2065ZM21.4422 13.2112C21.3631 13.2504 21.2722 13.3305 21.2234 13.4042C21.1407 13.5292 21.14 13.5347 21.1305 14.1888C21.1213 14.8142 21.117 14.8553 21.0445 15.0021C20.8982 15.2983 20.9591 15.6652 21.1909 15.8852C21.5058 16.1839 22.0624 16.1405 22.3107 15.7978C22.4895 15.5509 22.5042 15.1529 22.342 14.9467C22.2906 14.8813 22.2833 14.7982 22.2748 14.1835L22.2652 13.4936L22.1687 13.3736C21.9846 13.1448 21.7034 13.0819 21.4422 13.2112ZM16.1327 14.0664C15.6069 14.1807 15.0615 14.6149 14.8144 15.1159C14.5812 15.5891 14.5891 15.4425 14.6002 19.0774C14.6092 22.0052 14.6152 22.3339 14.6626 22.4893C14.8305 23.0386 15.2097 23.4998 15.6872 23.7352C16.1634 23.97 15.9854 23.9609 19.8994 23.9507C23.3515 23.9417 23.3927 23.9409 23.5953 23.8757C23.8677 23.7882 23.975 23.7314 24.2293 23.5405C24.5748 23.2812 24.8155 22.9219 24.9366 22.4849C24.9984 22.2618 25 22.1751 25 19.0022C25 15.8873 24.9974 15.7382 24.9395 15.5119C24.7879 14.9192 24.3885 14.4438 23.8256 14.1861C23.5861 14.0764 23.3211 14.0217 23.0231 14.0204L22.7809 14.0193V14.5975V15.1757L22.9919 15.1764C23.3569 15.1776 23.6611 15.3778 23.7797 15.695C23.8425 15.8628 23.8435 15.9173 23.8412 18.9978C23.8395 21.3126 23.8293 22.1558 23.8021 22.2294C23.7245 22.44 23.5756 22.6038 23.3699 22.7051L23.1712 22.8029L19.7646 22.7945L16.3581 22.7862L16.231 22.7181C16.161 22.6807 16.0507 22.5913 15.9857 22.5193C15.7471 22.2553 15.7643 22.53 15.7643 18.9731V15.7852L15.8482 15.6424C16.0316 15.3304 16.2391 15.2005 16.5847 15.1814L16.8113 15.1689V14.5941V14.0193L16.5691 14.0218C16.4358 14.0231 16.2395 14.0432 16.1327 14.0664ZM21.9878 16.7531C21.7168 16.8497 21.5307 17.1344 21.5307 17.4525C21.5307 17.7752 21.6716 18.0031 21.9514 18.1334C22.454 18.3675 23.0128 18.0105 23.0099 17.4572C23.0071 16.9195 22.5004 16.5704 21.9878 16.7531ZM17.0926 18.7257C16.9207 18.7869 16.7299 18.9617 16.652 19.1294C16.4768 19.5063 16.7013 20.0243 17.0901 20.1408C17.6975 20.3227 18.2292 19.8095 18.0609 19.2037C18.0202 19.0571 17.8035 18.8118 17.6628 18.753C17.4885 18.6802 17.2523 18.6689 17.0926 18.7257ZM19.5732 18.7191C19.0243 18.8982 18.8778 19.6259 19.3153 20.0004C19.8249 20.4366 20.6292 20.0183 20.5513 19.3577C20.4955 18.885 20.0186 18.5737 19.5732 18.7191ZM22.0306 18.7223C21.8673 18.7746 21.6374 18.9814 21.5742 19.1329C21.5117 19.2824 21.5199 19.6033 21.5901 19.7545C21.8316 20.2749 22.5695 20.3293 22.8947 19.8507C23.1366 19.4947 23.0051 18.9753 22.6235 18.7789C22.443 18.686 22.2124 18.6639 22.0306 18.7223ZM17.0127 20.7355C16.5726 20.9353 16.4562 21.5357 16.785 21.9093C16.9291 22.073 17.1126 22.1536 17.3426 22.1541C17.9848 22.1555 18.3278 21.4105 17.9097 20.9221C17.7617 20.7491 17.5963 20.6779 17.3426 20.6779C17.212 20.6779 17.0942 20.6984 17.0127 20.7355ZM19.4836 20.7343C19.2183 20.8608 19.0616 21.112 19.0616 21.411C19.0616 21.6192 19.1116 21.7496 19.2531 21.9108C19.5912 22.2958 20.2351 22.2158 20.4763 21.7587C20.5272 21.6622 20.5446 21.5741 20.5453 21.4086C20.5461 21.216 20.534 21.1675 20.4517 21.0345C20.3997 20.9504 20.2966 20.839 20.2226 20.787C20.1055 20.7047 20.0568 20.6912 19.8483 20.6835C19.6635 20.6767 19.58 20.6883 19.4836 20.7343ZM21.9527 20.7366C21.6775 20.8656 21.5321 21.0988 21.5321 21.411C21.5321 21.984 22.1037 22.3345 22.6131 22.0739C23.3077 21.7187 23.0546 20.6745 22.2746 20.6772C22.1485 20.6776 22.0327 20.699 21.9527 20.7366Z" fill="#107C02"/>
</svg>
