<svg width="15" height="15" viewBox="0 0 15 15" fill="none" xmlns="http://www.w3.org/2000/svg">
<path fill-rule="evenodd" clip-rule="evenodd" d="M6.98319 0.00286791C6.08561 0.054588 5.44054 0.185914 4.65346 0.477107C4.43634 0.557443 4.26916 0.633355 3.94525 0.798642C3.22531 1.16603 2.62599 1.60833 2.04683 2.19966C0.900622 3.36996 0.181397 4.90756 0.0157731 6.54171C-0.0152627 6.84783 0.00240236 7.89548 0.0435084 8.18654C0.36555 10.4675 1.59269 12.3409 3.53177 13.5118C4.90946 14.3437 6.59533 14.692 8.20212 14.4766C8.40064 14.4499 8.48405 14.4361 8.70927 14.3922L8.81324 14.3719L8.74944 14.3013C8.65061 14.1919 8.53193 14.0087 8.46236 13.8581C8.37103 13.6605 8.3281 13.4563 8.31314 13.1485L8.30014 12.8811L8.20426 12.897C7.74887 12.9725 7.1194 12.9899 6.64564 12.9403C5.27022 12.796 4.01501 12.1576 3.05113 11.112C2.26391 10.258 1.77538 9.21289 1.60038 8.00839C1.55974 7.72873 1.54364 7.05434 1.57081 6.7707C1.69295 5.4954 2.21673 4.31163 3.05458 3.4173C3.5692 2.86799 4.10046 2.46766 4.73286 2.15259C5.52102 1.75993 6.3568 1.56524 7.2523 1.56569C8.01328 1.56608 8.59963 1.67357 9.3112 1.94316C9.88432 2.16028 10.4363 2.48943 10.9604 2.92667C11.3117 3.2196 11.7206 3.67935 11.9944 4.08906C12.6053 5.00294 12.9096 5.96208 12.9663 7.15163C12.9762 7.36036 12.9845 7.41794 13.0034 7.41066C13.0168 7.40552 13.0855 7.40944 13.156 7.41938C13.4088 7.45505 13.6473 7.61428 13.7545 7.8191L13.8068 7.91884L13.9861 7.94069C14.0848 7.95269 14.236 7.98393 14.3221 8.01009C14.4083 8.03625 14.4818 8.05461 14.4855 8.05092C14.5105 8.0259 14.5336 7.46928 14.5228 7.14921C14.5018 6.52048 14.4391 6.04642 14.3059 5.50665C13.8466 3.6458 12.6621 2.04326 11.0012 1.03551C10.0976 0.487271 8.97134 0.117616 7.93959 0.0306407C7.68057 0.00881253 7.14829 -0.0066585 6.98319 0.00286791ZM7.11623 2.82338C6.88665 2.86416 6.64855 3.05012 6.54618 3.26857L6.49562 3.37645L6.49054 5.07757L6.48548 6.77867L5.37475 6.78407L4.26404 6.78946L4.15436 6.8441C3.83425 7.00358 3.65749 7.32762 3.70735 7.66356C3.75551 7.98802 3.96788 8.22729 4.28199 8.31092C4.42059 8.34783 7.31422 8.34783 7.45282 8.31092C7.60922 8.26927 7.69008 8.22211 7.80924 8.10301C7.92858 7.98373 7.99326 7.86939 8.02472 7.72201C8.03702 7.66446 8.04186 6.89284 8.03851 5.52364L8.03335 3.41396L7.99129 3.31082C7.90562 3.10077 7.71757 2.91889 7.51765 2.85274C7.40641 2.81593 7.23052 2.80307 7.11623 2.82338ZM10.5788 7.92501C10.4139 8.00882 10.3871 8.09896 10.3869 8.56876C10.3868 8.89402 10.3837 8.92797 10.348 8.98567C10.298 9.06659 10.2811 9.23002 10.3115 9.33856C10.3412 9.44494 10.4467 9.56914 10.5452 9.61388C10.6465 9.65989 10.8394 9.66009 10.9402 9.61428C11.0272 9.57475 11.1294 9.4657 11.1696 9.36939C11.2079 9.27763 11.1926 9.07791 11.1399 8.9815C11.1034 8.91478 11.0996 8.87555 11.095 8.52409C11.0907 8.19003 11.0854 8.13022 11.0543 8.06766C10.9754 7.90881 10.7461 7.84 10.5788 7.92501ZM11.7276 7.9239C11.6416 7.96679 11.5721 8.05902 11.5482 8.16214C11.5391 8.20133 11.5314 8.38659 11.5312 8.5738C11.5308 8.89667 11.5283 8.91934 11.484 9.01449C11.4232 9.14514 11.4224 9.27078 11.4817 9.39609C11.5636 9.56942 11.6914 9.64925 11.887 9.64925C12.0684 9.64925 12.2054 9.56955 12.2858 9.41717C12.3433 9.30823 12.3429 9.10818 12.285 8.99834C12.2464 8.92523 12.2433 8.89404 12.2429 8.57641C12.2427 8.38775 12.235 8.20133 12.2259 8.16214C12.1735 7.93662 11.9329 7.82159 11.7276 7.9239ZM12.8653 7.92674C12.8179 7.95023 12.7633 7.99832 12.7341 8.0425C12.6844 8.11751 12.684 8.12083 12.6783 8.51329C12.6728 8.88853 12.6702 8.91321 12.6267 9.00127C12.5389 9.17899 12.5754 9.39911 12.7146 9.53109C12.9035 9.71033 13.2375 9.68428 13.3864 9.4787C13.4937 9.33053 13.5025 9.09173 13.4052 8.96804C13.3744 8.92879 13.37 8.87895 13.3649 8.51008L13.3591 8.09615L13.3012 8.02414C13.1908 7.88687 13.0221 7.84916 12.8653 7.92674ZM9.67964 8.43987C9.36414 8.50843 9.03688 8.76896 8.88866 9.06955C8.74869 9.35345 8.75344 9.26548 8.76011 11.4464C8.76549 13.2031 8.76911 13.4004 8.79758 13.4936C8.8983 13.8231 9.12585 14.0999 9.41231 14.2411C9.69805 14.382 9.59124 14.3765 11.9397 14.3704C14.0109 14.365 14.0356 14.3645 14.1572 14.3254C14.3206 14.2729 14.385 14.2389 14.5376 14.1243C14.7449 13.9687 14.8893 13.7531 14.962 13.4909C14.9991 13.3571 15 13.3051 15 11.4013C15 9.53237 14.9984 9.44292 14.9637 9.30713C14.8728 8.9515 14.6331 8.66629 14.2953 8.51163C14.1517 8.44587 13.9927 8.41303 13.8139 8.41223L13.6686 8.41157V8.7585V9.10542L13.7951 9.10583C14.0141 9.10655 14.1966 9.22666 14.2678 9.417C14.3055 9.5177 14.3061 9.55039 14.3047 11.3987C14.3037 12.7876 14.2976 13.2935 14.2813 13.3376C14.2347 13.464 14.1454 13.5623 14.0219 13.6231L13.9027 13.6818L11.8588 13.6767L9.81486 13.6717L9.73857 13.6309C9.69661 13.6084 9.63039 13.5548 9.59142 13.5116C9.44826 13.3532 9.45856 13.518 9.45856 11.3839V9.4711L9.50893 9.38542C9.61897 9.19825 9.74349 9.12031 9.95082 9.10884L10.0868 9.10132V8.75645V8.41157L9.94144 8.41305C9.8615 8.41388 9.74369 8.42593 9.67964 8.43987ZM13.1927 10.0519C13.0301 10.1098 12.9184 10.2807 12.9184 10.4715C12.9184 10.6651 13.0029 10.8019 13.1708 10.8801C13.4724 11.0205 13.8077 10.8063 13.806 10.4743C13.8043 10.1517 13.5002 9.94223 13.1927 10.0519ZM10.2556 11.2354C10.1524 11.2721 10.038 11.377 9.99119 11.4776C9.8861 11.7038 10.0208 12.0146 10.2541 12.0845C10.6185 12.1936 10.9375 11.8857 10.8366 11.5222C10.8121 11.4343 10.6821 11.2871 10.5977 11.2518C10.4931 11.2081 10.3514 11.2013 10.2556 11.2354ZM11.7439 11.2314C11.4146 11.3389 11.3267 11.7756 11.5892 12.0002C11.8949 12.2619 12.3775 12.011 12.3308 11.6146C12.2973 11.331 12.0112 11.1442 11.7439 11.2314ZM13.2184 11.2334C13.1204 11.2648 12.9825 11.3889 12.9445 11.4797C12.907 11.5694 12.912 11.762 12.9541 11.8527C13.0989 12.1649 13.5417 12.1976 13.7368 11.9104C13.882 11.6968 13.8031 11.3852 13.5741 11.2673C13.4658 11.2116 13.3274 11.1984 13.2184 11.2334ZM10.2076 12.4413C9.94358 12.5612 9.87373 12.9214 10.071 13.1456C10.1575 13.2438 10.2676 13.2922 10.4056 13.2925C10.7909 13.2933 10.9967 12.8463 10.7458 12.5532C10.657 12.4495 10.5578 12.4067 10.4056 12.4067C10.3272 12.4067 10.2565 12.4191 10.2076 12.4413ZM11.6901 12.4406C11.531 12.5165 11.437 12.6672 11.437 12.8466C11.437 12.9715 11.4669 13.0497 11.5518 13.1465C11.7547 13.3775 12.1411 13.3295 12.2858 13.0552C12.3163 12.9973 12.3268 12.9445 12.3272 12.8451C12.3277 12.7296 12.3204 12.7005 12.271 12.6207C12.2398 12.5702 12.178 12.5034 12.1336 12.4722C12.0633 12.4228 12.0341 12.4147 11.909 12.4101C11.7981 12.406 11.748 12.413 11.6901 12.4406ZM13.1716 12.4419C13.0065 12.5194 12.9193 12.6593 12.9193 12.8466C12.9193 13.1904 13.2622 13.4007 13.5679 13.2444C13.9846 13.0312 13.8327 12.4047 13.3648 12.4063C13.2891 12.4066 13.2196 12.4194 13.1716 12.4419Z" fill="white" fill-opacity="0.9"/>
</svg>
